<svg xmlns="http://www.w3.org/2000/svg"  style="background:white" xmlns:xlink="http://www.w3.org/1999/xlink" xmlns:lucid="lucid" width="2590" height="1215"><g transform="translate(-96 -427)" lucid:page-tab-id="0_0"><path d="M0 0h3165.16v1979.26H0z" fill-opacity="0"/><path d="M160 508c0-4.42 3.58-8 8-8h384c4.42 0 8 3.58 8 8v190c0 4.42-3.58 8-8 8H168c-4.42 0-8-3.58-8-8z" fill="#c1e4f7"/><path d="M160 508c0-4.42 3.58-8 8-8h384c4.42 0 8 3.58 8 8v190c0 4.42-3.58 8-8 8H168c-4.42 0-8-3.58-8-8zM160 540h400M220 540v166" stroke="#333" fill="none"/><use xlink:href="#a" transform="matrix(1,0,0,1,170,500) translate(171.28395061728395 25.15555555555556)"/><use xlink:href="#b" transform="matrix(1,0,0,1,165,542.5) translate(13.148148148148145 20.155555555555555)"/><use xlink:href="#c" transform="matrix(1,0,0,1,225,542.5) translate(16.086419753086414 20.155555555555555)"/><use xlink:href="#d" transform="matrix(1,0,0,1,225,542.5) translate(34.80246913580247 20.155555555555555)"/><use xlink:href="#e" transform="matrix(1,0,0,1,225,542.5) translate(67.93827160493827 20.155555555555555)"/><use xlink:href="#f" transform="matrix(1,0,0,1,225,542.5) translate(109.96296296296296 20.155555555555555)"/><use xlink:href="#g" transform="matrix(1,0,0,1,225,542.5) translate(159.5925925925926 20.155555555555555)"/><use xlink:href="#h" transform="matrix(1,0,0,1,225,577.5) translate(31.839506172839503 20.155555555555555)"/><use xlink:href="#i" transform="matrix(1,0,0,1,225,577.5) translate(79.09876543209876 20.155555555555555)"/><use xlink:href="#e" transform="matrix(1,0,0,1,225,577.5) translate(210.80246913580248 20.155555555555555)"/><use xlink:href="#j" transform="matrix(1,0,0,1,225,577.5) translate(252.82716049382717 20.155555555555555)"/><use xlink:href="#k" transform="matrix(1,0,0,1,225,612.5) translate(123.075 17.1)"/><use xlink:href="#l" transform="matrix(1,0,0,1,225,644.5) translate(123.55 17.1)"/><use xlink:href="#m" transform="matrix(1,0,0,1,225,676.5) translate(101.64999999999999 17.1)"/><use xlink:href="#n" transform="matrix(1,0,0,1,225,676.5) translate(136.54999999999998 17.1)"/><path d="M780 508c0-4.42 3.58-8 8-8h384c4.42 0 8 3.58 8 8v161c0 4.42-3.58 8-8 8H788c-4.42 0-8-3.58-8-8z" fill="#ffbbb1"/><path d="M780 508c0-4.42 3.58-8 8-8h384c4.42 0 8 3.58 8 8v161c0 4.42-3.58 8-8 8H788c-4.42 0-8-3.58-8-8zM780 540h400M840 540v137" stroke="#333" fill="none"/><use xlink:href="#o" transform="matrix(1,0,0,1,790,500) translate(171.72839506172838 25.15555555555556)"/><use xlink:href="#b" transform="matrix(1,0,0,1,785,542.5) translate(13.148148148148145 20.155555555555555)"/><use xlink:href="#c" transform="matrix(1,0,0,1,845,542.5) translate(16.25925925925925 20.155555555555555)"/><use xlink:href="#d" transform="matrix(1,0,0,1,845,542.5) translate(34.9753086419753 20.155555555555555)"/><use xlink:href="#e" transform="matrix(1,0,0,1,845,542.5) translate(68.1111111111111 20.155555555555555)"/><use xlink:href="#f" transform="matrix(1,0,0,1,845,542.5) translate(110.1358024691358 20.155555555555555)"/><use xlink:href="#p" transform="matrix(1,0,0,1,845,542.5) translate(159.76543209876544 20.155555555555555)"/><use xlink:href="#q" transform="matrix(1,0,0,1,785,577.5) translate(13.666666666666664 20.155555555555555)"/><use xlink:href="#r" transform="matrix(1,0,0,1,845,577.5) translate(73.19753086419753 20.155555555555555)"/><use xlink:href="#d" transform="matrix(1,0,0,1,845,577.5) translate(136.30864197530866 20.155555555555555)"/><use xlink:href="#e" transform="matrix(1,0,0,1,845,577.5) translate(169.44444444444446 20.155555555555555)"/><use xlink:href="#j" transform="matrix(1,0,0,1,845,577.5) translate(211.46913580246914 20.155555555555555)"/><use xlink:href="#s" transform="matrix(1,0,0,1,845,612.5) translate(65.61728395061728 20.155555555555555)"/><use xlink:href="#t" transform="matrix(1,0,0,1,845,612.5) translate(147.49382716049382 20.155555555555555)"/><use xlink:href="#u" transform="matrix(1,0,0,1,845,647.5) translate(59.875 17.1)"/><use xlink:href="#v" transform="matrix(1,0,0,1,845,647.5) translate(141.775 17.1)"/><path d="M580.5 557.5H658c6.63 0 12 5.37 12 12v11c0 6.63 5.37 12 12 12h77.5" stroke="#333" stroke-width="3" fill="none"/><path d="M570.5 567.5v-20M560.5 557.5h20M580.5 567.5v-20M769.5 582.5v20M779.5 592.5h-20M759.5 582.5v20" stroke="#333" stroke-width="3" fill="#fff"/><path d="M1160 808c0-4.42 3.58-8 8-8h384c4.42 0 8 3.58 8 8v225c0 4.42-3.58 8-8 8h-384c-4.42 0-8-3.58-8-8z" fill="#ffeca9"/><path d="M1160 808c0-4.42 3.58-8 8-8h384c4.42 0 8 3.58 8 8v225c0 4.42-3.58 8-8 8h-384c-4.42 0-8-3.58-8-8zM1160 840h400M1220 840v201" stroke="#333" fill="none"/><use xlink:href="#w" transform="matrix(1,0,0,1,1170,800) translate(154.4691358024691 25.15555555555556)"/><use xlink:href="#b" transform="matrix(1,0,0,1,1165,842.5) translate(13.148148148148145 20.155555555555555)"/><use xlink:href="#c" transform="matrix(1,0,0,1,1225,842.5) translate(16.25925925925925 20.155555555555555)"/><use xlink:href="#d" transform="matrix(1,0,0,1,1225,842.5) translate(34.9753086419753 20.155555555555555)"/><use xlink:href="#e" transform="matrix(1,0,0,1,1225,842.5) translate(68.1111111111111 20.155555555555555)"/><use xlink:href="#f" transform="matrix(1,0,0,1,1225,842.5) translate(110.1358024691358 20.155555555555555)"/><use xlink:href="#p" transform="matrix(1,0,0,1,1225,842.5) translate(159.76543209876544 20.155555555555555)"/><use xlink:href="#x" transform="matrix(1,0,0,1,1165,877.5) translate(13.524999999999999 17.1)"/><use xlink:href="#y" transform="matrix(1,0,0,1,1225,877.5) translate(138.525 17.1)"/><use xlink:href="#z" transform="matrix(1,0,0,1,1225,909.5) translate(148.20987654320987 20.155555555555555)"/><use xlink:href="#A" transform="matrix(1,0,0,1,1225,944.5) translate(142.80246913580245 20.155555555555555)"/><use xlink:href="#B" transform="matrix(1,0,0,1,1225,979.5) translate(150.5 17.1)"/><use xlink:href="#C" transform="matrix(1,0,0,1,1225,1011.5) translate(140.55 17.1)"/><path d="M2700 608c0-4.42 3.58-8 8-8h384c4.42 0 8 3.58 8 8v129c0 4.42-3.58 8-8 8h-384c-4.42 0-8-3.58-8-8z" fill="#fff"/><path d="M2700 608c0-4.42 3.58-8 8-8h384c4.42 0 8 3.58 8 8v129c0 4.42-3.58 8-8 8h-384c-4.42 0-8-3.58-8-8zM2700 640h400M2760 640v105" stroke="#333" fill="none"/><use xlink:href="#D" transform="matrix(1,0,0,1,2710,600) translate(139.72839506172838 25.15555555555556)"/><use xlink:href="#b" transform="matrix(1,0,0,1,2705,642.5) translate(13.148148148148145 20.155555555555555)"/><use xlink:href="#c" transform="matrix(1,0,0,1,2765,642.5) translate(16.25925925925925 20.155555555555555)"/><use xlink:href="#d" transform="matrix(1,0,0,1,2765,642.5) translate(34.9753086419753 20.155555555555555)"/><use xlink:href="#e" transform="matrix(1,0,0,1,2765,642.5) translate(68.1111111111111 20.155555555555555)"/><use xlink:href="#f" transform="matrix(1,0,0,1,2765,642.5) translate(110.1358024691358 20.155555555555555)"/><use xlink:href="#p" transform="matrix(1,0,0,1,2765,642.5) translate(159.76543209876544 20.155555555555555)"/><use xlink:href="#q" transform="matrix(1,0,0,1,2705,677.5) translate(13.666666666666664 20.155555555555555)"/><use xlink:href="#E" transform="matrix(1,0,0,1,2765,677.5) translate(119.61728395061728 20.155555555555555)"/><use xlink:href="#q" transform="matrix(1,0,0,1,2705,712.5) translate(13.666666666666664 20.155555555555555)"/><use xlink:href="#F" transform="matrix(1,0,0,1,2765,712.5) translate(108.77777777777779 20.155555555555555)"/><path d="M2700 808c0-4.42 3.58-8 8-8h384c4.42 0 8 3.58 8 8v129c0 4.42-3.58 8-8 8h-384c-4.42 0-8-3.58-8-8z" fill="#fff"/><path d="M2700 808c0-4.42 3.58-8 8-8h384c4.42 0 8 3.58 8 8v129c0 4.42-3.58 8-8 8h-384c-4.42 0-8-3.58-8-8zM2700 840h400M2760 840v105" stroke="#333" fill="none"/><use xlink:href="#G" transform="matrix(1,0,0,1,2710,800) translate(121.04320987654322 25.15555555555556)"/><use xlink:href="#b" transform="matrix(1,0,0,1,2705,842.5) translate(13.148148148148145 20.155555555555555)"/><use xlink:href="#c" transform="matrix(1,0,0,1,2765,842.5) translate(16.75925925925925 20.155555555555555)"/><use xlink:href="#d" transform="matrix(1,0,0,1,2765,842.5) translate(35.4753086419753 20.155555555555555)"/><use xlink:href="#e" transform="matrix(1,0,0,1,2765,842.5) translate(68.6111111111111 20.155555555555555)"/><use xlink:href="#f" transform="matrix(1,0,0,1,2765,842.5) translate(110.6358024691358 20.155555555555555)"/><use xlink:href="#p" transform="matrix(1,0,0,1,2765,842.5) translate(160.26543209876544 20.155555555555555)"/><use xlink:href="#q" transform="matrix(1,0,0,1,2705,877.5) translate(13.666666666666664 20.155555555555555)"/><use xlink:href="#E" transform="matrix(1,0,0,1,2765,877.5) translate(120.11728395061728 20.155555555555555)"/><use xlink:href="#H" transform="matrix(1,0,0,1,2765,912.5) translate(146.3148148148148 20.155555555555555)"/><path d="M2700 988c0-4.42 3.58-8 8-8h384c4.42 0 8 3.58 8 8v129c0 4.42-3.58 8-8 8h-384c-4.42 0-8-3.58-8-8z" fill="#fff"/><path d="M2700 988c0-4.42 3.58-8 8-8h384c4.42 0 8 3.58 8 8v129c0 4.42-3.58 8-8 8h-384c-4.42 0-8-3.58-8-8zM2700 1020h400M2760 1020v105" stroke="#333" fill="none"/><use xlink:href="#I" transform="matrix(1,0,0,1,2710,980) translate(128.35185185185185 25.15555555555556)"/><use xlink:href="#b" transform="matrix(1,0,0,1,2705,1022.5) translate(13.148148148148145 20.155555555555555)"/><use xlink:href="#c" transform="matrix(1,0,0,1,2765,1022.5) translate(16.75925925925925 20.155555555555555)"/><use xlink:href="#d" transform="matrix(1,0,0,1,2765,1022.5) translate(35.4753086419753 20.155555555555555)"/><use xlink:href="#e" transform="matrix(1,0,0,1,2765,1022.5) translate(68.6111111111111 20.155555555555555)"/><use xlink:href="#f" transform="matrix(1,0,0,1,2765,1022.5) translate(110.6358024691358 20.155555555555555)"/><use xlink:href="#p" transform="matrix(1,0,0,1,2765,1022.5) translate(160.26543209876544 20.155555555555555)"/><use xlink:href="#q" transform="matrix(1,0,0,1,2705,1057.5) translate(13.666666666666664 20.155555555555555)"/><use xlink:href="#E" transform="matrix(1,0,0,1,2765,1057.5) translate(120.11728395061728 20.155555555555555)"/><use xlink:href="#H" transform="matrix(1,0,0,1,2765,1092.5) translate(146.3148148148148 20.155555555555555)"/><path d="M680 808c0-4.42 3.58-8 8-8h384c4.42 0 8 3.58 8 8v193c0 4.42-3.58 8-8 8H688c-4.42 0-8-3.58-8-8z" fill="#c7e8ac"/><path d="M680 808c0-4.42 3.58-8 8-8h384c4.42 0 8 3.58 8 8v193c0 4.42-3.58 8-8 8H688c-4.42 0-8-3.58-8-8zM680 840h400M740 840v169" stroke="#333" fill="none"/><use xlink:href="#J" transform="matrix(1,0,0,1,690,800) translate(173.72839506172838 25.15555555555556)"/><use xlink:href="#b" transform="matrix(1,0,0,1,685,842.5) translate(13.148148148148145 20.155555555555555)"/><use xlink:href="#c" transform="matrix(1,0,0,1,745,842.5) translate(16.086419753086414 20.155555555555555)"/><use xlink:href="#d" transform="matrix(1,0,0,1,745,842.5) translate(34.80246913580247 20.155555555555555)"/><use xlink:href="#e" transform="matrix(1,0,0,1,745,842.5) translate(67.93827160493827 20.155555555555555)"/><use xlink:href="#f" transform="matrix(1,0,0,1,745,842.5) translate(109.96296296296296 20.155555555555555)"/><use xlink:href="#g" transform="matrix(1,0,0,1,745,842.5) translate(159.5925925925926 20.155555555555555)"/><use xlink:href="#q" transform="matrix(1,0,0,1,685,877.5) translate(13.666666666666664 20.155555555555555)"/><use xlink:href="#K" transform="matrix(1,0,0,1,745,877.5) translate(135.91358024691357 20.155555555555555)"/><use xlink:href="#L" transform="matrix(1,0,0,1,745,912.5) translate(151.22222222222223 20.155555555555555)"/><use xlink:href="#M" transform="matrix(1,0,0,1,745,947.5) translate(121.57499999999999 17.1)"/><use xlink:href="#N" transform="matrix(1,0,0,1,745,979.5) translate(130.075 17.1)"/><path d="M1100.5 857.5h7.5c6.63 0 12 5.37 12 12v9.5c0 6.63 5.37 12 12 12h7.5" stroke="#333" stroke-width="3" fill="none"/><path d="M1090.5 867.5v-20M1080.5 857.5h20M1100.5 867.5v-20" stroke="#333" stroke-width="3" fill="#fff"/><path d="M1158.83 901l-20-10 20-10" stroke="#333" stroke-width="3" fill="#fff" fill-opacity="0"/><path d="M1158.83 891h-20M1138.83 881v20" stroke="#333" stroke-width="3" fill="#fff"/><path d="M1660 1393.15c0-4.4 3.58-8 8-8h384c4.42 0 8 3.6 8 8v158c0 4.42-3.58 8-8 8h-384c-4.42 0-8-3.58-8-8z" fill="#c1e4f7"/><path d="M1660 1393.15c0-4.4 3.58-8 8-8h384c4.42 0 8 3.6 8 8v158c0 4.42-3.58 8-8 8h-384c-4.42 0-8-3.58-8-8zM1660 1425.15h400M1720 1425.15v134" stroke="#333" fill="none"/><use xlink:href="#O" transform="matrix(1,0,0,1,1670,1385.154903846154) translate(150.02469135802468 25.15555555555556)"/><use xlink:href="#b" transform="matrix(1,0,0,1,1665,1427.654903846154) translate(13.148148148148145 20.155555555555555)"/><use xlink:href="#c" transform="matrix(1,0,0,1,1725,1427.654903846154) translate(16.25925925925925 20.155555555555555)"/><use xlink:href="#d" transform="matrix(1,0,0,1,1725,1427.654903846154) translate(34.9753086419753 20.155555555555555)"/><use xlink:href="#e" transform="matrix(1,0,0,1,1725,1427.654903846154) translate(68.1111111111111 20.155555555555555)"/><use xlink:href="#f" transform="matrix(1,0,0,1,1725,1427.654903846154) translate(110.1358024691358 20.155555555555555)"/><use xlink:href="#P" transform="matrix(1,0,0,1,1725,1427.654903846154) translate(159.76543209876544 20.155555555555555)"/><use xlink:href="#Q" transform="matrix(1,0,0,1,1665,1462.654903846154) translate(13.524999999999999 17.1)"/><use xlink:href="#R" transform="matrix(1,0,0,1,1725,1462.654903846154) translate(123.05 17.1)"/><use xlink:href="#q" transform="matrix(1,0,0,1,1665,1494.654903846154) translate(13.666666666666664 20.155555555555555)"/><use xlink:href="#S" transform="matrix(1,0,0,1,1725,1494.654903846154) translate(56.90123456790123 20.155555555555555)"/><use xlink:href="#d" transform="matrix(1,0,0,1,1725,1494.654903846154) translate(152.60493827160496 20.155555555555555)"/><use xlink:href="#e" transform="matrix(1,0,0,1,1725,1494.654903846154) translate(185.74074074074076 20.155555555555555)"/><use xlink:href="#j" transform="matrix(1,0,0,1,1725,1494.654903846154) translate(227.76543209876544 20.155555555555555)"/><use xlink:href="#T" transform="matrix(1,0,0,1,1725,1529.654903846154) translate(143.025 17.1)"/><path d="M1660 808c0-4.42 3.58-8 8-8h384c4.42 0 8 3.58 8 8v225c0 4.42-3.58 8-8 8h-384c-4.42 0-8-3.58-8-8z" fill="#ffeca9"/><path d="M1660 808c0-4.42 3.58-8 8-8h384c4.42 0 8 3.58 8 8v225c0 4.42-3.58 8-8 8h-384c-4.42 0-8-3.58-8-8zM1660 840h400M1720 840v201" stroke="#333" fill="none"/><use xlink:href="#U" transform="matrix(1,0,0,1,1670,800) translate(163.85185185185185 25.15555555555556)"/><use xlink:href="#b" transform="matrix(1,0,0,1,1665,842.5) translate(13.148148148148145 20.155555555555555)"/><use xlink:href="#c" transform="matrix(1,0,0,1,1725,842.5) translate(16.25925925925925 20.155555555555555)"/><use xlink:href="#d" transform="matrix(1,0,0,1,1725,842.5) translate(34.9753086419753 20.155555555555555)"/><use xlink:href="#e" transform="matrix(1,0,0,1,1725,842.5) translate(68.1111111111111 20.155555555555555)"/><use xlink:href="#f" transform="matrix(1,0,0,1,1725,842.5) translate(110.1358024691358 20.155555555555555)"/><use xlink:href="#p" transform="matrix(1,0,0,1,1725,842.5) translate(159.76543209876544 20.155555555555555)"/><use xlink:href="#Q" transform="matrix(1,0,0,1,1665,877.5) translate(13.524999999999999 17.1)"/><use xlink:href="#V" transform="matrix(1,0,0,1,1725,877.5) translate(119.05 17.1)"/><use xlink:href="#W" transform="matrix(1,0,0,1,1725,909.5) translate(150.679012345679 20.155555555555555)"/><use xlink:href="#X" transform="matrix(1,0,0,1,1725,944.5) translate(140.85185185185185 20.155555555555555)"/><use xlink:href="#Y" transform="matrix(1,0,0,1,1725,979.5) translate(126.07499999999999 17.1)"/><use xlink:href="#Z" transform="matrix(1,0,0,1,1725,1011.5) translate(142.525 17.1)"/><path d="M1580.5 857.5h17.5c6.63 0 12 5.37 12 12v9.48c0 6.63 5.37 12 12 12h17.5" stroke="#333" stroke-width="3" fill="none"/><path d="M1570.5 867.5v-20M1560.5 857.5h20M1580.5 867.5v-20" stroke="#333" stroke-width="3" fill="#fff"/><path d="M1658.83 900.98l-20-10 20-10" stroke="#333" stroke-width="3" fill="#fff" fill-opacity="0"/><path d="M1658.83 890.98h-20M1638.83 880.98v20" stroke="#333" stroke-width="3" fill="#fff"/><path d="M2220 1393.15c0-4.4 3.58-8 8-8h384c4.42 0 8 3.6 8 8v161c0 4.42-3.58 8-8 8h-384c-4.42 0-8-3.58-8-8z" fill="#c1e4f7"/><path d="M2220 1393.15c0-4.4 3.58-8 8-8h384c4.42 0 8 3.6 8 8v161c0 4.42-3.58 8-8 8h-384c-4.42 0-8-3.58-8-8zM2220 1425.15h400M2280 1425.15v137" stroke="#333" fill="none"/><use xlink:href="#aa" transform="matrix(1,0,0,1,2230,1385.154903846154) translate(122.91975308641976 25.15555555555556)"/><use xlink:href="#b" transform="matrix(1,0,0,1,2225,1427.654903846154) translate(13.148148148148145 20.155555555555555)"/><use xlink:href="#c" transform="matrix(1,0,0,1,2285,1427.654903846154) translate(16.75925925925925 20.155555555555555)"/><use xlink:href="#d" transform="matrix(1,0,0,1,2285,1427.654903846154) translate(35.4753086419753 20.155555555555555)"/><use xlink:href="#e" transform="matrix(1,0,0,1,2285,1427.654903846154) translate(68.6111111111111 20.155555555555555)"/><use xlink:href="#f" transform="matrix(1,0,0,1,2285,1427.654903846154) translate(110.6358024691358 20.155555555555555)"/><use xlink:href="#P" transform="matrix(1,0,0,1,2285,1427.654903846154) translate(160.26543209876544 20.155555555555555)"/><use xlink:href="#q" transform="matrix(1,0,0,1,2225,1462.654903846154) translate(13.666666666666664 20.155555555555555)"/><use xlink:href="#ab" transform="matrix(1,0,0,1,2285,1462.654903846154) translate(117.15432098765432 20.155555555555555)"/><use xlink:href="#q" transform="matrix(1,0,0,1,2225,1497.654903846154) translate(13.666666666666664 20.155555555555555)"/><use xlink:href="#ac" transform="matrix(1,0,0,1,2285,1497.654903846154) translate(129.5 20.155555555555555)"/><use xlink:href="#ad" transform="matrix(1,0,0,1,2285,1532.654903846154) translate(124.07499999999999 17.1)"/><path d="M2080.5 1442.65h47.5c6.63 0 12 5.38 12 12v11c0 6.63 5.37 12 12 12h47.5" stroke="#333" stroke-width="3" fill="none"/><path d="M2070.5 1452.65v-20M2060.5 1442.65h20M2080.5 1452.65v-20" stroke="#333" stroke-width="3" fill="#fff"/><path d="M2218.83 1487.65l-20-10 20-10" stroke="#333" stroke-width="3" fill="#fff" fill-opacity="0"/><path d="M2218.83 1477.65h-20M2198.83 1467.65v20" stroke="#333" stroke-width="3" fill="#fff"/><path d="M2080.5 857.34h47.5c6.63 0 12 5.38 12 12v631.3c0 6.64 5.37 12 12 12h29" stroke="#333" stroke-width="3" fill="none"/><path d="M2070.5 867.34v-20M2060.5 857.34h20M2080.5 867.34v-20" stroke="#333" stroke-width="3" fill="#fff"/><path d="M2218.83 1522.65l-20-10 20-10" stroke="#333" stroke-width="3" fill="#fff" fill-opacity="0"/><path d="M2218.83 1512.65h-20M2198.83 1512.65c0 5.53-4.48 10-10 10s-10-4.47-10-10c0-5.52 4.48-10 10-10s10 4.48 10 10" stroke="#333" stroke-width="3" fill="#fff"/><path d="M1160 1393.15c0-4.4 3.58-8 8-8h384c4.42 0 8 3.6 8 8v193c0 4.42-3.58 8-8 8h-384c-4.42 0-8-3.58-8-8z" fill="#c1e4f7"/><path d="M1160 1393.15c0-4.4 3.58-8 8-8h384c4.42 0 8 3.6 8 8v193c0 4.42-3.58 8-8 8h-384c-4.42 0-8-3.58-8-8zM1160 1425.15h400M1220 1425.15v169" stroke="#333" fill="none"/><use xlink:href="#ae" transform="matrix(1,0,0,1,1170,1385.154903846154) translate(159.4074074074074 25.15555555555556)"/><use xlink:href="#b" transform="matrix(1,0,0,1,1165,1427.654903846154) translate(13.148148148148145 20.155555555555555)"/><use xlink:href="#c" transform="matrix(1,0,0,1,1225,1427.654903846154) translate(16.25925925925925 20.155555555555555)"/><use xlink:href="#d" transform="matrix(1,0,0,1,1225,1427.654903846154) translate(34.9753086419753 20.155555555555555)"/><use xlink:href="#e" transform="matrix(1,0,0,1,1225,1427.654903846154) translate(68.1111111111111 20.155555555555555)"/><use xlink:href="#f" transform="matrix(1,0,0,1,1225,1427.654903846154) translate(110.1358024691358 20.155555555555555)"/><use xlink:href="#P" transform="matrix(1,0,0,1,1225,1427.654903846154) translate(159.76543209876544 20.155555555555555)"/><use xlink:href="#b" transform="matrix(1,0,0,1,1165,1462.654903846154) translate(13.148148148148145 20.155555555555555)"/><use xlink:href="#af" transform="matrix(1,0,0,1,1225,1462.654903846154) translate(138.85185185185185 20.155555555555555)"/><use xlink:href="#b" transform="matrix(1,0,0,1,1165,1497.654903846154) translate(13.148148148148145 20.155555555555555)"/><use xlink:href="#K" transform="matrix(1,0,0,1,1225,1497.654903846154) translate(135.91358024691357 20.155555555555555)"/><use xlink:href="#ag" transform="matrix(1,0,0,1,1225,1532.654903846154) translate(141 17.1)"/><use xlink:href="#ah" transform="matrix(1,0,0,1,1225,1564.654903846154) translate(140.525 17.1)"/><path d="M1580.5 1442.65h17.5c6.63 0 12 5.38 12 12v9.5c0 6.63 5.37 12 12 12h17.5" stroke="#333" stroke-width="3" fill="none"/><path d="M1570.5 1452.65v-20M1560.5 1442.65h20M1580.5 1452.65v-20" stroke="#333" stroke-width="3" fill="#fff"/><path d="M1658.83 1486.15l-20-10 20-10" stroke="#333" stroke-width="3" fill="#fff" fill-opacity="0"/><path d="M1658.83 1476.15h-20M1638.83 1466.15v20" stroke="#333" stroke-width="3" fill="#fff"/><path d="M1580.5 857.5h7c6.63 0 12 5.37 12 12v628.15c0 6.63 5.37 12 12 12h28" stroke="#333" stroke-width="3" fill="none"/><path d="M1570.5 867.5v-20M1560.5 857.5h20M1580.5 867.5v-20" stroke="#333" stroke-width="3" fill="#fff"/><path d="M1658.83 1519.65l-20-10 20-10" stroke="#333" stroke-width="3" fill="#fff" fill-opacity="0"/><path d="M1658.83 1509.65h-20M1638.83 1499.65v20" stroke="#333" stroke-width="3" fill="#fff"/><path d="M1100.5 857.5c5.25 0 9.5 4.25 9.5 9.5v599.65c0 6.08 4.92 11 11 11" stroke="#333" stroke-width="3" fill="none"/><path d="M1090.5 867.5v-20M1080.5 857.5h20M1100.5 867.5v-20" stroke="#333" stroke-width="3" fill="#fff"/><path d="M1158.83 1487.65l-20-10 20-10" stroke="#333" stroke-width="3" fill="#fff" fill-opacity="0"/><path d="M1158.83 1477.65h-20M1138.83 1477.65c0 5.53-4.48 10-10 10s-10-4.47-10-10c0-5.52 4.48-10 10-10s10 4.48 10 10" stroke="#333" stroke-width="3" fill="#fff"/><path d="M580.5 557.5H598c6.63 0 12 5.37 12 12v931.15c0 6.63 5.37 12 12 12h499" stroke="#333" stroke-width="3" fill="none"/><path d="M570.5 567.5v-20M560.5 557.5h20M580.5 567.5v-20" stroke="#333" stroke-width="3" fill="#fff"/><path d="M1158.83 1522.65l-20-10 20-10" stroke="#333" stroke-width="3" fill="#fff" fill-opacity="0"/><path d="M1158.83 1512.65h-20M1138.83 1512.65c0 5.53-4.48 10-10 10s-10-4.47-10-10c0-5.52 4.48-10 10-10s10 4.48 10 10" stroke="#333" stroke-width="3" fill="#fff"/><path d="M1660 1092.5c0-4.42 3.58-8 8-8h384c4.42 0 8 3.58 8 8v193c0 4.42-3.58 8-8 8h-384c-4.42 0-8-3.58-8-8z" fill="#ffeca9"/><path d="M1660 1092.5c0-4.42 3.58-8 8-8h384c4.42 0 8 3.58 8 8v193c0 4.42-3.58 8-8 8h-384c-4.42 0-8-3.58-8-8zM1660 1124.5h400M1720 1124.5v169" stroke="#333" fill="none"/><g><use xlink:href="#ai" transform="matrix(1,0,0,1,1670,1084.5) translate(167.3148148148148 25.15555555555556)"/></g><g><use xlink:href="#aj" transform="matrix(1,0,0,1,1665,1127) translate(13.148148148148145 20.155555555555555)"/></g><g><use xlink:href="#ak" transform="matrix(1,0,0,1,1725,1127) translate(16.75925925925925 20.155555555555555)"/><use xlink:href="#al" transform="matrix(1,0,0,1,1725,1127) translate(35.4753086419753 20.155555555555555)"/><use xlink:href="#am" transform="matrix(1,0,0,1,1725,1127) translate(68.6111111111111 20.155555555555555)"/><use xlink:href="#an" transform="matrix(1,0,0,1,1725,1127) translate(110.6358024691358 20.155555555555555)"/><use xlink:href="#ao" transform="matrix(1,0,0,1,1725,1127) translate(160.26543209876544 20.155555555555555)"/></g><g><use xlink:href="#ap" transform="matrix(1,0,0,1,1665,1162) translate(13.666666666666664 20.155555555555555)"/></g><g><use xlink:href="#aq" transform="matrix(1,0,0,1,1725,1162) translate(120.11728395061728 20.155555555555555)"/></g><g><use xlink:href="#ar" transform="matrix(1,0,0,1,1725,1197) translate(127.54938271604938 20.155555555555555)"/></g><g><use xlink:href="#as" transform="matrix(1,0,0,1,1725,1232) translate(104.55 17.1)"/></g><g><use xlink:href="#at" transform="matrix(1,0,0,1,1725,1264) translate(114.1 17.1)"/></g><path d="M1580.5 857.5h7.5c6.63 0 12 5.37 12 12V1165c0 6.63 5.37 12 12 12h27.5" stroke="#333" stroke-width="3" fill="none"/><path d="M1570.5 867.5v-20M1560.5 857.5h20M1580.5 867.5v-20M1649.5 1167v20M1659.5 1177h-20M1639.5 1167v20" stroke="#333" stroke-width="3" fill="#fff"/><path d="M580.5 557.5H598c6.63 0 12 5.37 12 12v311c0 6.63 5.37 12 12 12h19" stroke="#333" stroke-width="3" fill="none"/><path d="M580.5 567.5v-20M560.5 557.5h20" stroke="#333" stroke-width="3" fill="#fff"/><path d="M678.83 902.5l-20-10 20-10" stroke="#333" stroke-width="3" fill="#fff" fill-opacity="0"/><path d="M678.83 892.5h-20M658.83 892.5c0 5.52-4.48 10-10 10s-10-4.48-10-10 4.48-10 10-10 10 4.48 10 10" stroke="#333" stroke-width="3" fill="#fff"/><path d="M1160 1108c0-4.42 3.58-8 8-8h384c4.42 0 8 3.58 8 8v129c0 4.42-3.58 8-8 8h-384c-4.42 0-8-3.58-8-8z" fill="#ffbbb1"/><path d="M1160 1108c0-4.42 3.58-8 8-8h384c4.42 0 8 3.58 8 8v129c0 4.42-3.58 8-8 8h-384c-4.42 0-8-3.58-8-8zM1160 1140h400M1220 1140v105" stroke="#333" fill="none"/><g><use xlink:href="#au" transform="matrix(1,0,0,1,1170,1100) translate(140.7469135802469 25.15555555555556)"/></g><g><use xlink:href="#b" transform="matrix(1,0,0,1,1165,1142.5) translate(13.148148148148145 20.155555555555555)"/></g><g><use xlink:href="#c" transform="matrix(1,0,0,1,1225,1142.5) translate(16.75925925925925 20.155555555555555)"/><use xlink:href="#d" transform="matrix(1,0,0,1,1225,1142.5) translate(35.4753086419753 20.155555555555555)"/><use xlink:href="#e" transform="matrix(1,0,0,1,1225,1142.5) translate(68.6111111111111 20.155555555555555)"/><use xlink:href="#f" transform="matrix(1,0,0,1,1225,1142.5) translate(110.6358024691358 20.155555555555555)"/><use xlink:href="#av" transform="matrix(1,0,0,1,1225,1142.5) translate(160.26543209876544 20.155555555555555)"/></g><g><use xlink:href="#q" transform="matrix(1,0,0,1,1165,1177.5) translate(13.666666666666664 20.155555555555555)"/></g><g><use xlink:href="#af" transform="matrix(1,0,0,1,1225,1177.5) translate(139.35185185185185 20.155555555555555)"/></g><g><use xlink:href="#q" transform="matrix(1,0,0,1,1165,1212.5) translate(13.666666666666664 20.155555555555555)"/></g><g><use xlink:href="#K" transform="matrix(1,0,0,1,1225,1212.5) translate(136.41358024691357 20.155555555555555)"/></g><path d="M1100.5 857.38c5.25 0 9.5 4.26 9.5 9.5v314.67c0 6.08 4.92 11 11 11" stroke="#333" stroke-width="3" fill="none"/><path d="M1090.5 867.38v-20M1080.5 857.38h20M1100.5 867.38v-20" stroke="#333" stroke-width="3" fill="#fff"/><path d="M1158.83 1202.55l-20-10 20-10" stroke="#333" stroke-width="3" fill="#fff" fill-opacity="0"/><path d="M1158.83 1192.55h-20M1138.83 1192.55c0 5.52-4.48 10-10 10s-10-4.48-10-10 4.48-10 10-10 10 4.48 10 10" stroke="#333" stroke-width="3" fill="#fff"/><path d="M580.5 557.5H598c6.63 0 12 5.37 12 12v646.14c0 6.62 5.37 12 12 12h499" stroke="#333" stroke-width="3" fill="none"/><path d="M570.5 567.5v-20M560.5 557.5h20M580.5 567.5v-20" stroke="#333" stroke-width="3" fill="#fff"/><path d="M1158.83 1237.64l-20-10 20-10" stroke="#333" stroke-width="3" fill="#fff" fill-opacity="0"/><path d="M1158.83 1227.64h-20M1138.83 1227.64c0 5.52-4.48 10-10 10s-10-4.48-10-10c0-5.53 4.48-10 10-10s10 4.47 10 10" stroke="#333" stroke-width="3" fill="#fff"/><defs><path fill="#333" d="M232-93c-1 65-40 97-104 97C67 4 28-28 28-90v-158h33c8 89-33 224 67 224 102 0 64-133 71-224h33v155" id="aw"/><path fill="#333" d="M135-143c-3-34-86-38-87 0 15 53 115 12 119 90S17 21 10-45l28-5c4 36 97 45 98 0-10-56-113-15-118-90-4-57 82-63 122-42 12 7 21 19 24 35" id="ax"/><path fill="#333" d="M100-194c63 0 86 42 84 106H49c0 40 14 67 53 68 26 1 43-12 49-29l28 8c-11 28-37 45-77 45C44 4 14-33 15-96c1-61 26-98 85-98zm52 81c6-60-76-77-97-28-3 7-6 17-6 28h103" id="ay"/><path fill="#333" d="M114-163C36-179 61-72 57 0H25l-1-190h30c1 12-1 29 2 39 6-27 23-49 58-41v29" id="az"/><g id="a"><use transform="matrix(0.04938271604938272,0,0,0.04938271604938272,0,0)" xlink:href="#aw"/><use transform="matrix(0.04938271604938272,0,0,0.04938271604938272,12.790123456790125,0)" xlink:href="#ax"/><use transform="matrix(0.04938271604938272,0,0,0.04938271604938272,21.679012345679013,0)" xlink:href="#ay"/><use transform="matrix(0.04938271604938272,0,0,0.04938271604938272,31.555555555555557,0)" xlink:href="#az"/></g><path fill="#333" d="M30-248c87 1 191-15 191 75 0 78-77 80-158 76V0H30v-248zm33 125c57 0 124 11 124-50 0-59-68-47-124-48v98" id="aA"/><path fill="#333" d="M194 0L95-120 63-95V0H30v-248h33v124l119-124h40L117-140 236 0h-42" id="aB"/><g id="b"><use transform="matrix(0.04938271604938272,0,0,0.04938271604938272,0,0)" xlink:href="#aA"/><use transform="matrix(0.04938271604938272,0,0,0.04938271604938272,11.851851851851853,0)" xlink:href="#aB"/></g><path fill="#333" d="M24-231v-30h32v30H24zM24 0v-190h32V0H24" id="aC"/><path fill="#333" d="M85-194c31 0 48 13 60 33l-1-100h32l1 261h-30c-2-10 0-23-3-31C134-8 116 4 85 4 32 4 16-35 15-94c0-66 23-100 70-100zm9 24c-40 0-46 34-46 75 0 40 6 74 45 74 42 0 51-32 51-76 0-42-9-74-50-73" id="aD"/><g id="c"><use transform="matrix(0.04938271604938272,0,0,0.04938271604938272,0,0)" xlink:href="#aC"/><use transform="matrix(0.04938271604938272,0,0,0.04938271604938272,3.901234567901235,0)" xlink:href="#aD"/></g><path fill="#333" d="M33 0v-248h34V0H33" id="aE"/><path fill="#333" d="M190 0L58-211 59 0H30v-248h39L202-35l-2-213h31V0h-41" id="aF"/><path fill="#333" d="M127-220V0H93v-220H8v-28h204v28h-85" id="aG"/><g id="d"><use transform="matrix(0.04938271604938272,0,0,0.04938271604938272,0,0)" xlink:href="#aE"/><use transform="matrix(0.04938271604938272,0,0,0.04938271604938272,4.938271604938272,0)" xlink:href="#aF"/><use transform="matrix(0.04938271604938272,0,0,0.04938271604938272,17.7283950617284,0)" xlink:href="#aG"/></g><path fill="#333" d="M140-251c81 0 123 46 123 126C263-46 219 4 140 4 59 4 17-45 17-125s42-126 123-126zm0 227c63 0 89-41 89-101s-29-99-89-99c-61 0-89 39-89 99S79-25 140-24" id="aH"/><g id="e"><use transform="matrix(0.04938271604938272,0,0,0.04938271604938272,0,0)" xlink:href="#aF"/><use transform="matrix(0.04938271604938272,0,0,0.04938271604938272,12.790123456790125,0)" xlink:href="#aH"/><use transform="matrix(0.04938271604938272,0,0,0.04938271604938272,26.617283950617285,0)" xlink:href="#aG"/></g><path fill="#333" d="M30 0v-248h33v221h125V0H30" id="aI"/><g id="f"><use transform="matrix(0.04938271604938272,0,0,0.04938271604938272,0,0)" xlink:href="#aF"/><use transform="matrix(0.04938271604938272,0,0,0.04938271604938272,12.790123456790125,0)" xlink:href="#aw"/><use transform="matrix(0.04938271604938272,0,0,0.04938271604938272,25.58024691358025,0)" xlink:href="#aI"/><use transform="matrix(0.04938271604938272,0,0,0.04938271604938272,35.4567901234568,0)" xlink:href="#aI"/></g><path fill="#333" d="M205 0l-28-72H64L36 0H1l101-248h38L239 0h-34zm-38-99l-47-123c-12 45-31 82-46 123h93" id="aJ"/><path fill="#333" d="M212-179c-10-28-35-45-73-45-59 0-87 40-87 99 0 60 29 101 89 101 43 0 62-24 78-52l27 14C228-24 195 4 139 4 59 4 22-46 18-125c-6-104 99-153 187-111 19 9 31 26 39 46" id="aK"/><path fill="#333" d="M233-177c-1 41-23 64-60 70L243 0h-38l-65-103H63V0H30v-248c88 3 205-21 203 71zM63-129c60-2 137 13 137-47 0-61-80-42-137-45v92" id="aL"/><path fill="#333" d="M30 0v-248h187v28H63v79h144v27H63v87h162V0H30" id="aM"/><path fill="#333" d="M240 0l2-218c-23 76-54 145-80 218h-23L58-218 59 0H30v-248h44l77 211c21-75 51-140 76-211h43V0h-30" id="aN"/><g id="g"><use transform="matrix(0.04938271604938272,0,0,0.04938271604938272,0,0)" xlink:href="#aJ"/><use transform="matrix(0.04938271604938272,0,0,0.04938271604938272,11.851851851851853,0)" xlink:href="#aw"/><use transform="matrix(0.04938271604938272,0,0,0.04938271604938272,24.641975308641978,0)" xlink:href="#aG"/><use transform="matrix(0.04938271604938272,0,0,0.04938271604938272,35.111111111111114,0)" xlink:href="#aH"/><use transform="matrix(0.04938271604938272,0,0,0.04938271604938272,48.93827160493828,0)" xlink:href="#aE"/><use transform="matrix(0.04938271604938272,0,0,0.04938271604938272,53.876543209876544,0)" xlink:href="#aF"/><use transform="matrix(0.04938271604938272,0,0,0.04938271604938272,66.66666666666667,0)" xlink:href="#aK"/><use transform="matrix(0.04938271604938272,0,0,0.04938271604938272,79.4567901234568,0)" xlink:href="#aL"/><use transform="matrix(0.04938271604938272,0,0,0.04938271604938272,92.24691358024693,0)" xlink:href="#aM"/><use transform="matrix(0.04938271604938272,0,0,0.04938271604938272,104.09876543209877,0)" xlink:href="#aN"/><use transform="matrix(0.04938271604938272,0,0,0.04938271604938272,118.8641975308642,0)" xlink:href="#aM"/><use transform="matrix(0.04938271604938272,0,0,0.04938271604938272,130.71604938271605,0)" xlink:href="#aF"/><use transform="matrix(0.04938271604938272,0,0,0.04938271604938272,143.50617283950618,0)" xlink:href="#aG"/></g><path fill="#333" d="M210-169c-67 3-38 105-44 169h-31v-121c0-29-5-50-35-48C34-165 62-65 56 0H25l-1-190h30c1 10-1 24 2 32 10-44 99-50 107 0 11-21 27-35 58-36 85-2 47 119 55 194h-31v-121c0-29-5-49-35-48" id="aO"/><path fill="#333" d="M141-36C126-15 110 5 73 4 37 3 15-17 15-53c-1-64 63-63 125-63 3-35-9-54-41-54-24 1-41 7-42 31l-33-3c5-37 33-52 76-52 45 0 72 20 72 64v82c-1 20 7 32 28 27v20c-31 9-61-2-59-35zM48-53c0 20 12 33 32 33 41-3 63-29 60-74-43 2-92-5-92 41" id="aP"/><path fill="#333" d="M24 0v-261h32V0H24" id="aQ"/><g id="h"><use transform="matrix(0.04938271604938272,0,0,0.04938271604938272,0,0)" xlink:href="#ay"/><use transform="matrix(0.04938271604938272,0,0,0.04938271604938272,9.876543209876544,0)" xlink:href="#aO"/><use transform="matrix(0.04938271604938272,0,0,0.04938271604938272,24.641975308641978,0)" xlink:href="#aP"/><use transform="matrix(0.04938271604938272,0,0,0.04938271604938272,34.51851851851852,0)" xlink:href="#aC"/><use transform="matrix(0.04938271604938272,0,0,0.04938271604938272,38.41975308641975,0)" xlink:href="#aQ"/></g><path fill="#333" d="M137 0h-34L2-248h35l83 218 83-218h36" id="aR"/><path fill="#333" d="M197 0v-115H63V0H30v-248h33v105h134v-105h34V0h-34" id="aS"/><path fill="#333" d="M87 75C49 33 22-17 22-94c0-76 28-126 65-167h31c-38 41-64 92-64 168S80 34 118 75H87" id="aT"/><path fill="#333" d="M27 0v-27h64v-190l-56 39v-29l58-41h29v221h61V0H27" id="aU"/><path fill="#333" d="M101-251c68 0 85 55 85 127S166 4 100 4C33 4 14-52 14-124c0-73 17-127 87-127zm-1 229c47 0 54-49 54-102s-4-102-53-102c-51 0-55 48-55 102 0 53 5 102 54 102" id="aV"/><path fill="#333" d="M33-261c38 41 65 92 65 168S71 34 33 75H2C39 34 66-17 66-93S39-220 2-261h31" id="aW"/><g id="i"><use transform="matrix(0.04938271604938272,0,0,0.04938271604938272,0,0)" xlink:href="#aR"/><use transform="matrix(0.04938271604938272,0,0,0.04938271604938272,10.518518518518519,0)" xlink:href="#aJ"/><use transform="matrix(0.04938271604938272,0,0,0.04938271604938272,22.370370370370374,0)" xlink:href="#aL"/><use transform="matrix(0.04938271604938272,0,0,0.04938271604938272,35.1604938271605,0)" xlink:href="#aK"/><use transform="matrix(0.04938271604938272,0,0,0.04938271604938272,47.95061728395063,0)" xlink:href="#aS"/><use transform="matrix(0.04938271604938272,0,0,0.04938271604938272,60.740740740740755,0)" xlink:href="#aJ"/><use transform="matrix(0.04938271604938272,0,0,0.04938271604938272,72.59259259259261,0)" xlink:href="#aL"/><use transform="matrix(0.04938271604938272,0,0,0.04938271604938272,85.38271604938274,0)" xlink:href="#aT"/><use transform="matrix(0.04938271604938272,0,0,0.04938271604938272,91.25925925925928,0)" xlink:href="#aU"/><use transform="matrix(0.04938271604938272,0,0,0.04938271604938272,101.13580246913584,0)" xlink:href="#aV"/><use transform="matrix(0.04938271604938272,0,0,0.04938271604938272,111.01234567901238,0)" xlink:href="#aV"/><use transform="matrix(0.04938271604938272,0,0,0.04938271604938272,120.88888888888893,0)" xlink:href="#aW"/></g><g id="j"><use transform="matrix(0.04938271604938272,0,0,0.04938271604938272,0,0)" xlink:href="#aF"/><use transform="matrix(0.04938271604938272,0,0,0.04938271604938272,12.790123456790125,0)" xlink:href="#aw"/><use transform="matrix(0.04938271604938272,0,0,0.04938271604938272,25.58024691358025,0)" xlink:href="#aI"/><use transform="matrix(0.04938271604938272,0,0,0.04938271604938272,35.4567901234568,0)" xlink:href="#aI"/></g><path fill="#333" d="M101-234c-31-9-42 10-38 44h38v23H63V0H32v-167H5v-23h27c-7-52 17-82 69-68v24" id="aX"/><path fill="#333" d="M59-47c-2 24 18 29 38 22v24C64 9 27 4 27-40v-127H5v-23h24l9-43h21v43h35v23H59v120" id="aY"/><path fill="#333" d="M-5 72V49h209v23H-5" id="aZ"/><path fill="#333" d="M117-194c89-4 53 116 60 194h-32v-121c0-31-8-49-39-48C34-167 62-67 57 0H25l-1-190h30c1 10-1 24 2 32 11-22 29-35 61-36" id="ba"/><g id="k"><use transform="matrix(0.05,0,0,0.05,0,0)" xlink:href="#aX"/><use transform="matrix(0.05,0,0,0.05,5,0)" xlink:href="#aC"/><use transform="matrix(0.05,0,0,0.05,8.95,0)" xlink:href="#az"/><use transform="matrix(0.05,0,0,0.05,14.899999999999999,0)" xlink:href="#ax"/><use transform="matrix(0.05,0,0,0.05,23.9,0)" xlink:href="#aY"/><use transform="matrix(0.05,0,0,0.05,28.899999999999995,0)" xlink:href="#aZ"/><use transform="matrix(0.05,0,0,0.05,38.9,0)" xlink:href="#ba"/><use transform="matrix(0.05,0,0,0.05,48.9,0)" xlink:href="#aP"/><use transform="matrix(0.05,0,0,0.05,58.900000000000006,0)" xlink:href="#aO"/><use transform="matrix(0.05,0,0,0.05,73.85,0)" xlink:href="#ay"/></g><g id="l"><use transform="matrix(0.05,0,0,0.05,0,0)" xlink:href="#aQ"/><use transform="matrix(0.05,0,0,0.05,3.95,0)" xlink:href="#aP"/><use transform="matrix(0.05,0,0,0.05,13.949999999999998,0)" xlink:href="#ax"/><use transform="matrix(0.05,0,0,0.05,22.95,0)" xlink:href="#aY"/><use transform="matrix(0.05,0,0,0.05,27.950000000000003,0)" xlink:href="#aZ"/><use transform="matrix(0.05,0,0,0.05,37.95,0)" xlink:href="#ba"/><use transform="matrix(0.05,0,0,0.05,47.95,0)" xlink:href="#aP"/><use transform="matrix(0.05,0,0,0.05,57.95,0)" xlink:href="#aO"/><use transform="matrix(0.05,0,0,0.05,72.9,0)" xlink:href="#ay"/></g><path fill="#333" d="M100-194c62-1 85 37 85 99 1 63-27 99-86 99S16-35 15-95c0-66 28-99 85-99zM99-20c44 1 53-31 53-75 0-43-8-75-51-75s-53 32-53 75 10 74 51 75" id="bb"/><g id="m"><use transform="matrix(0.05,0,0,0.05,0,0)" xlink:href="#az"/><use transform="matrix(0.05,0,0,0.05,5.95,0)" xlink:href="#bb"/><use transform="matrix(0.05,0,0,0.05,15.949999999999998,0)" xlink:href="#aQ"/><use transform="matrix(0.05,0,0,0.05,19.9,0)" xlink:href="#ay"/></g><path fill="#333" d="M108 0H70L1-190h34L89-25l56-165h34" id="bc"/><path fill="#333" d="M96-169c-40 0-48 33-48 73s9 75 48 75c24 0 41-14 43-38l32 2c-6 37-31 61-74 61-59 0-76-41-82-99-10-93 101-131 147-64 4 7 5 14 7 22l-32 3c-4-21-16-35-41-35" id="bd"/><path fill="#333" d="M106-169C34-169 62-67 57 0H25v-261h32l-1 103c12-21 28-36 61-36 89 0 53 116 60 194h-32v-121c2-32-8-49-39-48" id="be"/><path fill="#333" d="M101-251c82-7 93 87 43 132L82-64C71-53 59-42 53-27h129V0H18c2-99 128-94 128-182 0-28-16-43-45-43s-46 15-49 41l-32-3c6-41 34-60 81-64" id="bf"/><g id="n"><use transform="matrix(0.05,0,0,0.05,0,0)" xlink:href="#bc"/><use transform="matrix(0.05,0,0,0.05,9,0)" xlink:href="#aP"/><use transform="matrix(0.05,0,0,0.05,19,0)" xlink:href="#az"/><use transform="matrix(0.05,0,0,0.05,24.95,0)" xlink:href="#bd"/><use transform="matrix(0.05,0,0,0.05,33.95,0)" xlink:href="#be"/><use transform="matrix(0.05,0,0,0.05,43.95,0)" xlink:href="#aP"/><use transform="matrix(0.05,0,0,0.05,53.95,0)" xlink:href="#az"/><use transform="matrix(0.05,0,0,0.05,59.900000000000006,0)" xlink:href="#aT"/><use transform="matrix(0.05,0,0,0.05,65.85000000000001,0)" xlink:href="#bf"/><use transform="matrix(0.05,0,0,0.05,75.85000000000001,0)" xlink:href="#aV"/><use transform="matrix(0.05,0,0,0.05,85.85000000000001,0)" xlink:href="#aW"/></g><path fill="#333" d="M84 4C-5 8 30-112 23-190h32v120c0 31 7 50 39 49 72-2 45-101 50-169h31l1 190h-30c-1-10 1-25-2-33-11 22-28 36-60 37" id="bg"/><g id="o"><use transform="matrix(0.04938271604938272,0,0,0.04938271604938272,0,0)" xlink:href="#aJ"/><use transform="matrix(0.04938271604938272,0,0,0.04938271604938272,11.851851851851853,0)" xlink:href="#bg"/><use transform="matrix(0.04938271604938272,0,0,0.04938271604938272,21.7283950617284,0)" xlink:href="#aY"/><use transform="matrix(0.04938271604938272,0,0,0.04938271604938272,26.666666666666668,0)" xlink:href="#be"/></g><g id="p"><use transform="matrix(0.04938271604938272,0,0,0.04938271604938272,0,0)" xlink:href="#aJ"/><use transform="matrix(0.04938271604938272,0,0,0.04938271604938272,11.851851851851853,0)" xlink:href="#aw"/><use transform="matrix(0.04938271604938272,0,0,0.04938271604938272,24.641975308641978,0)" xlink:href="#aG"/><use transform="matrix(0.04938271604938272,0,0,0.04938271604938272,35.111111111111114,0)" xlink:href="#aH"/><use transform="matrix(0.04938271604938272,0,0,0.04938271604938272,48.93827160493828,0)" xlink:href="#aE"/><use transform="matrix(0.04938271604938272,0,0,0.04938271604938272,53.876543209876544,0)" xlink:href="#aF"/><use transform="matrix(0.04938271604938272,0,0,0.04938271604938272,66.66666666666667,0)" xlink:href="#aK"/><use transform="matrix(0.04938271604938272,0,0,0.04938271604938272,79.4567901234568,0)" xlink:href="#aL"/><use transform="matrix(0.04938271604938272,0,0,0.04938271604938272,92.24691358024693,0)" xlink:href="#aM"/><use transform="matrix(0.04938271604938272,0,0,0.04938271604938272,104.09876543209877,0)" xlink:href="#aN"/><use transform="matrix(0.04938271604938272,0,0,0.04938271604938272,118.8641975308642,0)" xlink:href="#aM"/><use transform="matrix(0.04938271604938272,0,0,0.04938271604938272,130.71604938271605,0)" xlink:href="#aF"/><use transform="matrix(0.04938271604938272,0,0,0.04938271604938272,143.50617283950618,0)" xlink:href="#aG"/></g><path fill="#333" d="M63-220v92h138v28H63V0H30v-248h175v28H63" id="bh"/><g id="q"><use transform="matrix(0.04938271604938272,0,0,0.04938271604938272,0,0)" xlink:href="#bh"/><use transform="matrix(0.04938271604938272,0,0,0.04938271604938272,10.814814814814815,0)" xlink:href="#aB"/></g><g id="r"><use transform="matrix(0.04938271604938272,0,0,0.04938271604938272,0,0)" xlink:href="#bg"/><use transform="matrix(0.04938271604938272,0,0,0.04938271604938272,9.876543209876544,0)" xlink:href="#ax"/><use transform="matrix(0.04938271604938272,0,0,0.04938271604938272,18.765432098765434,0)" xlink:href="#ay"/><use transform="matrix(0.04938271604938272,0,0,0.04938271604938272,28.641975308641978,0)" xlink:href="#az"/><use transform="matrix(0.04938271604938272,0,0,0.04938271604938272,34.51851851851852,0)" xlink:href="#aZ"/><use transform="matrix(0.04938271604938272,0,0,0.04938271604938272,44.39506172839506,0)" xlink:href="#aC"/><use transform="matrix(0.04938271604938272,0,0,0.04938271604938272,48.2962962962963,0)" xlink:href="#aD"/></g><path fill="#333" d="M177-190C167-65 218 103 67 71c-23-6-38-20-44-43l32-5c15 47 100 32 89-28v-30C133-14 115 1 83 1 29 1 15-40 15-95c0-56 16-97 71-98 29-1 48 16 59 35 1-10 0-23 2-32h30zM94-22c36 0 50-32 50-73 0-42-14-75-50-75-39 0-46 34-46 75s6 73 46 73" id="bi"/><g id="s"><use transform="matrix(0.04938271604938272,0,0,0.04938271604938272,0,0)" xlink:href="#bi"/><use transform="matrix(0.04938271604938272,0,0,0.04938271604938272,9.876543209876544,0)" xlink:href="#bb"/><use transform="matrix(0.04938271604938272,0,0,0.04938271604938272,19.75308641975309,0)" xlink:href="#bb"/><use transform="matrix(0.04938271604938272,0,0,0.04938271604938272,29.629629629629633,0)" xlink:href="#bi"/><use transform="matrix(0.04938271604938272,0,0,0.04938271604938272,39.50617283950618,0)" xlink:href="#aQ"/><use transform="matrix(0.04938271604938272,0,0,0.04938271604938272,43.40740740740741,0)" xlink:href="#ay"/><use transform="matrix(0.04938271604938272,0,0,0.04938271604938272,53.283950617283956,0)" xlink:href="#aZ"/><use transform="matrix(0.04938271604938272,0,0,0.04938271604938272,63.1604938271605,0)" xlink:href="#aC"/><use transform="matrix(0.04938271604938272,0,0,0.04938271604938272,67.06172839506173,0)" xlink:href="#aD"/></g><g id="t"><use transform="matrix(0.04938271604938272,0,0,0.04938271604938272,0,0)" xlink:href="#aR"/><use transform="matrix(0.04938271604938272,0,0,0.04938271604938272,10.518518518518519,0)" xlink:href="#aJ"/><use transform="matrix(0.04938271604938272,0,0,0.04938271604938272,22.370370370370374,0)" xlink:href="#aL"/><use transform="matrix(0.04938271604938272,0,0,0.04938271604938272,35.1604938271605,0)" xlink:href="#aK"/><use transform="matrix(0.04938271604938272,0,0,0.04938271604938272,47.95061728395063,0)" xlink:href="#aS"/><use transform="matrix(0.04938271604938272,0,0,0.04938271604938272,60.740740740740755,0)" xlink:href="#aJ"/><use transform="matrix(0.04938271604938272,0,0,0.04938271604938272,72.59259259259261,0)" xlink:href="#aL"/><use transform="matrix(0.04938271604938272,0,0,0.04938271604938272,85.38271604938274,0)" xlink:href="#aT"/><use transform="matrix(0.04938271604938272,0,0,0.04938271604938272,91.25925925925928,0)" xlink:href="#bf"/><use transform="matrix(0.04938271604938272,0,0,0.04938271604938272,101.13580246913584,0)" xlink:href="#aV"/><use transform="matrix(0.04938271604938272,0,0,0.04938271604938272,111.01234567901238,0)" xlink:href="#aW"/></g><path fill="#333" d="M115-194c55 1 70 41 70 98S169 2 115 4C84 4 66-9 55-30l1 105H24l-1-265h31l2 30c10-21 28-34 59-34zm-8 174c40 0 45-34 45-75s-6-73-45-74c-42 0-51 32-51 76 0 43 10 73 51 73" id="bj"/><path fill="#333" d="M206 0h-36l-40-164L89 0H53L-1-190h32L70-26l43-164h34l41 164 42-164h31" id="bk"/><g id="u"><use transform="matrix(0.05,0,0,0.05,0,0)" xlink:href="#bj"/><use transform="matrix(0.05,0,0,0.05,10,0)" xlink:href="#aP"/><use transform="matrix(0.05,0,0,0.05,20,0)" xlink:href="#ax"/><use transform="matrix(0.05,0,0,0.05,29,0)" xlink:href="#ax"/><use transform="matrix(0.05,0,0,0.05,38,0)" xlink:href="#bk"/><use transform="matrix(0.05,0,0,0.05,50.95,0)" xlink:href="#bb"/><use transform="matrix(0.05,0,0,0.05,60.95,0)" xlink:href="#az"/><use transform="matrix(0.05,0,0,0.05,66.9,0)" xlink:href="#aD"/></g><g id="v"><use transform="matrix(0.05,0,0,0.05,0,0)" xlink:href="#aR"/><use transform="matrix(0.05,0,0,0.05,10.65,0)" xlink:href="#aJ"/><use transform="matrix(0.05,0,0,0.05,22.65,0)" xlink:href="#aL"/><use transform="matrix(0.05,0,0,0.05,35.6,0)" xlink:href="#aK"/><use transform="matrix(0.05,0,0,0.05,48.550000000000004,0)" xlink:href="#aS"/><use transform="matrix(0.05,0,0,0.05,61.5,0)" xlink:href="#aJ"/><use transform="matrix(0.05,0,0,0.05,73.5,0)" xlink:href="#aL"/><use transform="matrix(0.05,0,0,0.05,86.45,0)" xlink:href="#aT"/><use transform="matrix(0.05,0,0,0.05,92.4,0)" xlink:href="#aU"/><use transform="matrix(0.05,0,0,0.05,102.4,0)" xlink:href="#aV"/><use transform="matrix(0.05,0,0,0.05,112.4,0)" xlink:href="#aV"/><use transform="matrix(0.05,0,0,0.05,122.4,0)" xlink:href="#aW"/></g><path fill="#333" d="M140-251c81 0 123 46 123 126C263-53 228-8 163 1c7 30 30 48 69 40v23c-55 16-95-15-103-61C56-3 17-48 17-125c0-80 42-126 123-126zm0 227c63 0 89-41 89-101s-29-99-89-99c-61 0-89 39-89 99S79-25 140-24" id="bl"/><g id="w"><use transform="matrix(0.04938271604938272,0,0,0.04938271604938272,0,0)" xlink:href="#bl"/><use transform="matrix(0.04938271604938272,0,0,0.04938271604938272,13.827160493827162,0)" xlink:href="#bg"/><use transform="matrix(0.04938271604938272,0,0,0.04938271604938272,23.703703703703706,0)" xlink:href="#ay"/><use transform="matrix(0.04938271604938272,0,0,0.04938271604938272,33.580246913580254,0)" xlink:href="#ax"/><use transform="matrix(0.04938271604938272,0,0,0.04938271604938272,42.46913580246914,0)" xlink:href="#aY"/><use transform="matrix(0.04938271604938272,0,0,0.04938271604938272,47.40740740740741,0)" xlink:href="#aC"/><use transform="matrix(0.04938271604938272,0,0,0.04938271604938272,51.308641975308646,0)" xlink:href="#bb"/><use transform="matrix(0.04938271604938272,0,0,0.04938271604938272,61.18518518518519,0)" xlink:href="#ba"/></g><g id="x"><use transform="matrix(0.05,0,0,0.05,0,0)" xlink:href="#bh"/><use transform="matrix(0.05,0,0,0.05,10.950000000000001,0)" xlink:href="#aB"/></g><g id="y"><use transform="matrix(0.05,0,0,0.05,0,0)" xlink:href="#aY"/><use transform="matrix(0.05,0,0,0.05,5,0)" xlink:href="#ay"/><use transform="matrix(0.05,0,0,0.05,15,0)" xlink:href="#ax"/><use transform="matrix(0.05,0,0,0.05,24,0)" xlink:href="#aY"/><use transform="matrix(0.05,0,0,0.05,29,0)" xlink:href="#aZ"/><use transform="matrix(0.05,0,0,0.05,39,0)" xlink:href="#aC"/><use transform="matrix(0.05,0,0,0.05,42.95,0)" xlink:href="#aD"/></g><path fill="#333" d="M179-190L93 31C79 59 56 82 12 73V49c39 6 53-20 64-50L1-190h34L92-34l54-156h33" id="bm"/><g id="z"><use transform="matrix(0.04938271604938272,0,0,0.04938271604938272,0,0)" xlink:href="#aY"/><use transform="matrix(0.04938271604938272,0,0,0.04938271604938272,4.938271604938272,0)" xlink:href="#bm"/><use transform="matrix(0.04938271604938272,0,0,0.04938271604938272,13.827160493827162,0)" xlink:href="#bj"/><use transform="matrix(0.04938271604938272,0,0,0.04938271604938272,23.703703703703706,0)" xlink:href="#ay"/></g><g id="A"><use transform="matrix(0.04938271604938272,0,0,0.04938271604938272,0,0)" xlink:href="#aO"/><use transform="matrix(0.04938271604938272,0,0,0.04938271604938272,14.765432098765434,0)" xlink:href="#bb"/><use transform="matrix(0.04938271604938272,0,0,0.04938271604938272,24.641975308641978,0)" xlink:href="#aD"/><use transform="matrix(0.04938271604938272,0,0,0.04938271604938272,34.51851851851852,0)" xlink:href="#ay"/></g><path fill="#333" d="M141 0L90-78 38 0H4l68-98-65-92h35l48 74 47-74h35l-64 92 68 98h-35" id="bn"/><g id="B"><use transform="matrix(0.05,0,0,0.05,0,0)" xlink:href="#aY"/><use transform="matrix(0.05,0,0,0.05,5,0)" xlink:href="#ay"/><use transform="matrix(0.05,0,0,0.05,15,0)" xlink:href="#bn"/><use transform="matrix(0.05,0,0,0.05,24,0)" xlink:href="#aY"/></g><g id="C"><use transform="matrix(0.05,0,0,0.05,0,0)" xlink:href="#aC"/><use transform="matrix(0.05,0,0,0.05,3.95,0)" xlink:href="#aO"/><use transform="matrix(0.05,0,0,0.05,18.900000000000002,0)" xlink:href="#aP"/><use transform="matrix(0.05,0,0,0.05,28.900000000000002,0)" xlink:href="#bi"/><use transform="matrix(0.05,0,0,0.05,38.900000000000006,0)" xlink:href="#ay"/></g><g id="D"><use transform="matrix(0.04938271604938272,0,0,0.04938271604938272,0,0)" xlink:href="#aN"/><use transform="matrix(0.04938271604938272,0,0,0.04938271604938272,14.765432098765434,0)" xlink:href="#aK"/><use transform="matrix(0.04938271604938272,0,0,0.04938271604938272,27.555555555555557,0)" xlink:href="#bl"/><use transform="matrix(0.04938271604938272,0,0,0.04938271604938272,41.38271604938272,0)" xlink:href="#aJ"/><use transform="matrix(0.04938271604938272,0,0,0.04938271604938272,53.23456790123457,0)" xlink:href="#ba"/><use transform="matrix(0.04938271604938272,0,0,0.04938271604938272,63.111111111111114,0)" xlink:href="#ax"/><use transform="matrix(0.04938271604938272,0,0,0.04938271604938272,72.00000000000001,0)" xlink:href="#bk"/><use transform="matrix(0.04938271604938272,0,0,0.04938271604938272,84.79012345679014,0)" xlink:href="#ay"/><use transform="matrix(0.04938271604938272,0,0,0.04938271604938272,94.66666666666669,0)" xlink:href="#az"/></g><path fill="#333" d="M145-31C134-9 116 4 85 4 32 4 16-35 15-94c0-59 17-99 70-100 32-1 48 14 60 33 0-11-1-24 2-32h30l-1 268h-32zM93-21c41 0 51-33 51-76s-8-73-50-73c-40 0-46 35-46 75s5 74 45 74" id="bo"/><g id="E"><use transform="matrix(0.04938271604938272,0,0,0.04938271604938272,0,0)" xlink:href="#bo"/><use transform="matrix(0.04938271604938272,0,0,0.04938271604938272,9.876543209876544,0)" xlink:href="#bg"/><use transform="matrix(0.04938271604938272,0,0,0.04938271604938272,19.75308641975309,0)" xlink:href="#ay"/><use transform="matrix(0.04938271604938272,0,0,0.04938271604938272,29.629629629629633,0)" xlink:href="#ax"/><use transform="matrix(0.04938271604938272,0,0,0.04938271604938272,38.51851851851852,0)" xlink:href="#aY"/><use transform="matrix(0.04938271604938272,0,0,0.04938271604938272,43.45679012345679,0)" xlink:href="#aC"/><use transform="matrix(0.04938271604938272,0,0,0.04938271604938272,47.358024691358025,0)" xlink:href="#bb"/><use transform="matrix(0.04938271604938272,0,0,0.04938271604938272,57.23456790123457,0)" xlink:href="#ba"/><use transform="matrix(0.04938271604938272,0,0,0.04938271604938272,67.11111111111111,0)" xlink:href="#aZ"/><use transform="matrix(0.04938271604938272,0,0,0.04938271604938272,76.98765432098766,0)" xlink:href="#aC"/><use transform="matrix(0.04938271604938272,0,0,0.04938271604938272,80.8888888888889,0)" xlink:href="#aD"/></g><g id="F"><use transform="matrix(0.04938271604938272,0,0,0.04938271604938272,0,0)" xlink:href="#bd"/><use transform="matrix(0.04938271604938272,0,0,0.04938271604938272,8.88888888888889,0)" xlink:href="#bb"/><use transform="matrix(0.04938271604938272,0,0,0.04938271604938272,18.765432098765434,0)" xlink:href="#az"/><use transform="matrix(0.04938271604938272,0,0,0.04938271604938272,24.641975308641978,0)" xlink:href="#az"/><use transform="matrix(0.04938271604938272,0,0,0.04938271604938272,30.518518518518523,0)" xlink:href="#ay"/><use transform="matrix(0.04938271604938272,0,0,0.04938271604938272,40.39506172839506,0)" xlink:href="#bd"/><use transform="matrix(0.04938271604938272,0,0,0.04938271604938272,49.28395061728395,0)" xlink:href="#aY"/><use transform="matrix(0.04938271604938272,0,0,0.04938271604938272,54.22222222222223,0)" xlink:href="#aZ"/><use transform="matrix(0.04938271604938272,0,0,0.04938271604938272,64.09876543209876,0)" xlink:href="#bb"/><use transform="matrix(0.04938271604938272,0,0,0.04938271604938272,73.9753086419753,0)" xlink:href="#bj"/><use transform="matrix(0.04938271604938272,0,0,0.04938271604938272,83.85185185185185,0)" xlink:href="#aY"/><use transform="matrix(0.04938271604938272,0,0,0.04938271604938272,88.79012345679013,0)" xlink:href="#aC"/><use transform="matrix(0.04938271604938272,0,0,0.04938271604938272,92.69135802469137,0)" xlink:href="#bb"/><use transform="matrix(0.04938271604938272,0,0,0.04938271604938272,102.56790123456791,0)" xlink:href="#ba"/></g><g id="G"><use transform="matrix(0.04938271604938272,0,0,0.04938271604938272,0,0)" xlink:href="#aF"/><use transform="matrix(0.04938271604938272,0,0,0.04938271604938272,12.790123456790125,0)" xlink:href="#bg"/><use transform="matrix(0.04938271604938272,0,0,0.04938271604938272,22.66666666666667,0)" xlink:href="#aO"/><use transform="matrix(0.04938271604938272,0,0,0.04938271604938272,37.4320987654321,0)" xlink:href="#ay"/><use transform="matrix(0.04938271604938272,0,0,0.04938271604938272,47.308641975308646,0)" xlink:href="#az"/><use transform="matrix(0.04938271604938272,0,0,0.04938271604938272,53.18518518518519,0)" xlink:href="#aC"/><use transform="matrix(0.04938271604938272,0,0,0.04938271604938272,57.086419753086425,0)" xlink:href="#bd"/><use transform="matrix(0.04938271604938272,0,0,0.04938271604938272,65.97530864197532,0)" xlink:href="#aP"/><use transform="matrix(0.04938271604938272,0,0,0.04938271604938272,75.85185185185186,0)" xlink:href="#aQ"/><use transform="matrix(0.04938271604938272,0,0,0.04938271604938272,79.7530864197531,0)" xlink:href="#aJ"/><use transform="matrix(0.04938271604938272,0,0,0.04938271604938272,91.60493827160495,0)" xlink:href="#ba"/><use transform="matrix(0.04938271604938272,0,0,0.04938271604938272,101.4814814814815,0)" xlink:href="#ax"/><use transform="matrix(0.04938271604938272,0,0,0.04938271604938272,110.37037037037038,0)" xlink:href="#bk"/><use transform="matrix(0.04938271604938272,0,0,0.04938271604938272,123.16049382716051,0)" xlink:href="#ay"/><use transform="matrix(0.04938271604938272,0,0,0.04938271604938272,133.03703703703707,0)" xlink:href="#az"/></g><g id="H"><use transform="matrix(0.04938271604938272,0,0,0.04938271604938272,0,0)" xlink:href="#bh"/><use transform="matrix(0.04938271604938272,0,0,0.04938271604938272,10.814814814814815,0)" xlink:href="#aC"/><use transform="matrix(0.04938271604938272,0,0,0.04938271604938272,14.71604938271605,0)" xlink:href="#ay"/><use transform="matrix(0.04938271604938272,0,0,0.04938271604938272,24.592592592592595,0)" xlink:href="#aQ"/><use transform="matrix(0.04938271604938272,0,0,0.04938271604938272,28.49382716049383,0)" xlink:href="#aD"/></g><path fill="#333" d="M160-131c35 5 61 23 61 61C221 17 115-2 30 0v-248c76 3 177-17 177 60 0 33-19 50-47 57zm-97-11c50-1 110 9 110-42 0-47-63-36-110-37v79zm0 115c55-2 124 14 124-45 0-56-70-42-124-44v89" id="bp"/><g id="I"><use transform="matrix(0.04938271604938272,0,0,0.04938271604938272,0,0)" xlink:href="#bp"/><use transform="matrix(0.04938271604938272,0,0,0.04938271604938272,11.851851851851853,0)" xlink:href="#bb"/><use transform="matrix(0.04938271604938272,0,0,0.04938271604938272,21.7283950617284,0)" xlink:href="#bb"/><use transform="matrix(0.04938271604938272,0,0,0.04938271604938272,31.60493827160494,0)" xlink:href="#aQ"/><use transform="matrix(0.04938271604938272,0,0,0.04938271604938272,35.50617283950618,0)" xlink:href="#ay"/><use transform="matrix(0.04938271604938272,0,0,0.04938271604938272,45.38271604938272,0)" xlink:href="#aP"/><use transform="matrix(0.04938271604938272,0,0,0.04938271604938272,55.25925925925927,0)" xlink:href="#ba"/><use transform="matrix(0.04938271604938272,0,0,0.04938271604938272,65.13580246913581,0)" xlink:href="#aJ"/><use transform="matrix(0.04938271604938272,0,0,0.04938271604938272,76.98765432098766,0)" xlink:href="#ba"/><use transform="matrix(0.04938271604938272,0,0,0.04938271604938272,86.8641975308642,0)" xlink:href="#ax"/><use transform="matrix(0.04938271604938272,0,0,0.04938271604938272,95.75308641975309,0)" xlink:href="#bk"/><use transform="matrix(0.04938271604938272,0,0,0.04938271604938272,108.54320987654322,0)" xlink:href="#ay"/><use transform="matrix(0.04938271604938272,0,0,0.04938271604938272,118.41975308641976,0)" xlink:href="#az"/></g><g id="J"><use transform="matrix(0.04938271604938272,0,0,0.04938271604938272,0,0)" xlink:href="#aG"/><use transform="matrix(0.04938271604938272,0,0,0.04938271604938272,8.839506172839506,0)" xlink:href="#ay"/><use transform="matrix(0.04938271604938272,0,0,0.04938271604938272,18.71604938271605,0)" xlink:href="#ax"/><use transform="matrix(0.04938271604938272,0,0,0.04938271604938272,27.60493827160494,0)" xlink:href="#aY"/></g><g id="K"><use transform="matrix(0.04938271604938272,0,0,0.04938271604938272,0,0)" xlink:href="#bg"/><use transform="matrix(0.04938271604938272,0,0,0.04938271604938272,9.876543209876544,0)" xlink:href="#ax"/><use transform="matrix(0.04938271604938272,0,0,0.04938271604938272,18.765432098765434,0)" xlink:href="#ay"/><use transform="matrix(0.04938271604938272,0,0,0.04938271604938272,28.641975308641978,0)" xlink:href="#az"/><use transform="matrix(0.04938271604938272,0,0,0.04938271604938272,34.51851851851852,0)" xlink:href="#aZ"/><use transform="matrix(0.04938271604938272,0,0,0.04938271604938272,44.39506172839506,0)" xlink:href="#aC"/><use transform="matrix(0.04938271604938272,0,0,0.04938271604938272,48.2962962962963,0)" xlink:href="#aD"/></g><g id="L"><use transform="matrix(0.04938271604938272,0,0,0.04938271604938272,0,0)" xlink:href="#aY"/><use transform="matrix(0.04938271604938272,0,0,0.04938271604938272,4.938271604938272,0)" xlink:href="#aC"/><use transform="matrix(0.04938271604938272,0,0,0.04938271604938272,8.839506172839506,0)" xlink:href="#aY"/><use transform="matrix(0.04938271604938272,0,0,0.04938271604938272,13.777777777777779,0)" xlink:href="#aQ"/><use transform="matrix(0.04938271604938272,0,0,0.04938271604938272,17.679012345679013,0)" xlink:href="#ay"/></g><g id="M"><use transform="matrix(0.05,0,0,0.05,0,0)" xlink:href="#aD"/><use transform="matrix(0.05,0,0,0.05,10,0)" xlink:href="#ay"/><use transform="matrix(0.05,0,0,0.05,20,0)" xlink:href="#ax"/><use transform="matrix(0.05,0,0,0.05,29,0)" xlink:href="#bd"/><use transform="matrix(0.05,0,0,0.05,38,0)" xlink:href="#az"/><use transform="matrix(0.05,0,0,0.05,43.95,0)" xlink:href="#aC"/><use transform="matrix(0.05,0,0,0.05,47.900000000000006,0)" xlink:href="#bj"/><use transform="matrix(0.05,0,0,0.05,57.900000000000006,0)" xlink:href="#aY"/><use transform="matrix(0.05,0,0,0.05,62.900000000000006,0)" xlink:href="#aC"/><use transform="matrix(0.05,0,0,0.05,66.85000000000001,0)" xlink:href="#bb"/><use transform="matrix(0.05,0,0,0.05,76.85000000000001,0)" xlink:href="#ba"/></g><path fill="#333" d="M115-194c53 0 69 39 70 98 0 66-23 100-70 100C84 3 66-7 56-30L54 0H23l1-261h32v101c10-23 28-34 59-34zm-8 174c40 0 45-34 45-75 0-40-5-75-45-74-42 0-51 32-51 76 0 43 10 73 51 73" id="bq"/><g id="N"><use transform="matrix(0.05,0,0,0.05,0,0)" xlink:href="#aC"/><use transform="matrix(0.05,0,0,0.05,3.95,0)" xlink:href="#ax"/><use transform="matrix(0.05,0,0,0.05,12.949999999999998,0)" xlink:href="#aZ"/><use transform="matrix(0.05,0,0,0.05,22.95,0)" xlink:href="#bj"/><use transform="matrix(0.05,0,0,0.05,32.95,0)" xlink:href="#bg"/><use transform="matrix(0.05,0,0,0.05,42.95,0)" xlink:href="#bq"/><use transform="matrix(0.05,0,0,0.05,52.95,0)" xlink:href="#aQ"/><use transform="matrix(0.05,0,0,0.05,56.900000000000006,0)" xlink:href="#aC"/><use transform="matrix(0.05,0,0,0.05,60.85,0)" xlink:href="#bd"/></g><g id="O"><use transform="matrix(0.04938271604938272,0,0,0.04938271604938272,0,0)" xlink:href="#aL"/><use transform="matrix(0.04938271604938272,0,0,0.04938271604938272,12.790123456790125,0)" xlink:href="#ay"/><use transform="matrix(0.04938271604938272,0,0,0.04938271604938272,22.66666666666667,0)" xlink:href="#ax"/><use transform="matrix(0.04938271604938272,0,0,0.04938271604938272,31.555555555555557,0)" xlink:href="#bj"/><use transform="matrix(0.04938271604938272,0,0,0.04938271604938272,41.4320987654321,0)" xlink:href="#bb"/><use transform="matrix(0.04938271604938272,0,0,0.04938271604938272,51.308641975308646,0)" xlink:href="#ba"/><use transform="matrix(0.04938271604938272,0,0,0.04938271604938272,61.18518518518519,0)" xlink:href="#ax"/><use transform="matrix(0.04938271604938272,0,0,0.04938271604938272,70.07407407407408,0)" xlink:href="#ay"/></g><g id="P"><use transform="matrix(0.04938271604938272,0,0,0.04938271604938272,0,0)" xlink:href="#aJ"/><use transform="matrix(0.04938271604938272,0,0,0.04938271604938272,11.851851851851853,0)" xlink:href="#aw"/><use transform="matrix(0.04938271604938272,0,0,0.04938271604938272,24.641975308641978,0)" xlink:href="#aG"/><use transform="matrix(0.04938271604938272,0,0,0.04938271604938272,35.111111111111114,0)" xlink:href="#aH"/><use transform="matrix(0.04938271604938272,0,0,0.04938271604938272,48.93827160493828,0)" xlink:href="#aE"/><use transform="matrix(0.04938271604938272,0,0,0.04938271604938272,53.876543209876544,0)" xlink:href="#aF"/><use transform="matrix(0.04938271604938272,0,0,0.04938271604938272,66.66666666666667,0)" xlink:href="#aK"/><use transform="matrix(0.04938271604938272,0,0,0.04938271604938272,79.4567901234568,0)" xlink:href="#aL"/><use transform="matrix(0.04938271604938272,0,0,0.04938271604938272,92.24691358024693,0)" xlink:href="#aM"/><use transform="matrix(0.04938271604938272,0,0,0.04938271604938272,104.09876543209877,0)" xlink:href="#aN"/><use transform="matrix(0.04938271604938272,0,0,0.04938271604938272,118.8641975308642,0)" xlink:href="#aM"/><use transform="matrix(0.04938271604938272,0,0,0.04938271604938272,130.71604938271605,0)" xlink:href="#aF"/><use transform="matrix(0.04938271604938272,0,0,0.04938271604938272,143.50617283950618,0)" xlink:href="#aG"/></g><path d="M63-220v92h138v28H63V0H30v-248h175v28H63" id="br"/><path d="M194 0L95-120 63-95V0H30v-248h33v124l119-124h40L117-140 236 0h-42" id="bs"/><g id="Q"><use transform="matrix(0.05,0,0,0.05,0,0)" xlink:href="#br"/><use transform="matrix(0.05,0,0,0.05,10.950000000000001,0)" xlink:href="#bs"/></g><g id="R"><use transform="matrix(0.05,0,0,0.05,0,0)" xlink:href="#aP"/><use transform="matrix(0.05,0,0,0.05,10,0)" xlink:href="#aY"/><use transform="matrix(0.05,0,0,0.05,15,0)" xlink:href="#aY"/><use transform="matrix(0.05,0,0,0.05,20,0)" xlink:href="#ay"/><use transform="matrix(0.05,0,0,0.05,30,0)" xlink:href="#aO"/><use transform="matrix(0.05,0,0,0.05,44.95,0)" xlink:href="#bj"/><use transform="matrix(0.05,0,0,0.05,54.95,0)" xlink:href="#aY"/><use transform="matrix(0.05,0,0,0.05,59.95,0)" xlink:href="#aZ"/><use transform="matrix(0.05,0,0,0.05,69.95,0)" xlink:href="#aC"/><use transform="matrix(0.05,0,0,0.05,73.9,0)" xlink:href="#aD"/></g><g id="S"><use transform="matrix(0.04938271604938272,0,0,0.04938271604938272,0,0)" xlink:href="#bo"/><use transform="matrix(0.04938271604938272,0,0,0.04938271604938272,9.876543209876544,0)" xlink:href="#bg"/><use transform="matrix(0.04938271604938272,0,0,0.04938271604938272,19.75308641975309,0)" xlink:href="#ay"/><use transform="matrix(0.04938271604938272,0,0,0.04938271604938272,29.629629629629633,0)" xlink:href="#ax"/><use transform="matrix(0.04938271604938272,0,0,0.04938271604938272,38.51851851851852,0)" xlink:href="#aY"/><use transform="matrix(0.04938271604938272,0,0,0.04938271604938272,43.45679012345679,0)" xlink:href="#aC"/><use transform="matrix(0.04938271604938272,0,0,0.04938271604938272,47.358024691358025,0)" xlink:href="#bb"/><use transform="matrix(0.04938271604938272,0,0,0.04938271604938272,57.23456790123457,0)" xlink:href="#ba"/><use transform="matrix(0.04938271604938272,0,0,0.04938271604938272,67.11111111111111,0)" xlink:href="#aZ"/><use transform="matrix(0.04938271604938272,0,0,0.04938271604938272,76.98765432098766,0)" xlink:href="#aC"/><use transform="matrix(0.04938271604938272,0,0,0.04938271604938272,80.8888888888889,0)" xlink:href="#aD"/></g><path d="M135-143c-3-34-86-38-87 0 15 53 115 12 119 90S17 21 10-45l28-5c4 36 97 45 98 0-10-56-113-15-118-90-4-57 82-63 122-42 12 7 21 19 24 35" id="bt"/><path d="M96-169c-40 0-48 33-48 73s9 75 48 75c24 0 41-14 43-38l32 2c-6 37-31 61-74 61-59 0-76-41-82-99-10-93 101-131 147-64 4 7 5 14 7 22l-32 3c-4-21-16-35-41-35" id="bu"/><path d="M100-194c62-1 85 37 85 99 1 63-27 99-86 99S16-35 15-95c0-66 28-99 85-99zM99-20c44 1 53-31 53-75 0-43-8-75-51-75s-53 32-53 75 10 74 51 75" id="bv"/><path d="M114-163C36-179 61-72 57 0H25l-1-190h30c1 12-1 29 2 39 6-27 23-49 58-41v29" id="bw"/><path d="M100-194c63 0 86 42 84 106H49c0 40 14 67 53 68 26 1 43-12 49-29l28 8c-11 28-37 45-77 45C44 4 14-33 15-96c1-61 26-98 85-98zm52 81c6-60-76-77-97-28-3 7-6 17-6 28h103" id="bx"/><g id="T"><use transform="matrix(0.05,0,0,0.05,0,0)" xlink:href="#bt"/><use transform="matrix(0.05,0,0,0.05,9,0)" xlink:href="#bu"/><use transform="matrix(0.05,0,0,0.05,18,0)" xlink:href="#bv"/><use transform="matrix(0.05,0,0,0.05,28,0)" xlink:href="#bw"/><use transform="matrix(0.05,0,0,0.05,33.95,0)" xlink:href="#bx"/></g><g id="U"><use transform="matrix(0.04938271604938272,0,0,0.04938271604938272,0,0)" xlink:href="#aH"/><use transform="matrix(0.04938271604938272,0,0,0.04938271604938272,13.827160493827162,0)" xlink:href="#bj"/><use transform="matrix(0.04938271604938272,0,0,0.04938271604938272,23.703703703703706,0)" xlink:href="#aY"/><use transform="matrix(0.04938271604938272,0,0,0.04938271604938272,28.641975308641978,0)" xlink:href="#aC"/><use transform="matrix(0.04938271604938272,0,0,0.04938271604938272,32.543209876543216,0)" xlink:href="#bb"/><use transform="matrix(0.04938271604938272,0,0,0.04938271604938272,42.41975308641976,0)" xlink:href="#ba"/></g><g id="V"><use transform="matrix(0.05,0,0,0.05,0,0)" xlink:href="#bo"/><use transform="matrix(0.05,0,0,0.05,10,0)" xlink:href="#bg"/><use transform="matrix(0.05,0,0,0.05,20,0)" xlink:href="#ay"/><use transform="matrix(0.05,0,0,0.05,30,0)" xlink:href="#ax"/><use transform="matrix(0.05,0,0,0.05,39,0)" xlink:href="#aY"/><use transform="matrix(0.05,0,0,0.05,44,0)" xlink:href="#aC"/><use transform="matrix(0.05,0,0,0.05,47.95,0)" xlink:href="#bb"/><use transform="matrix(0.05,0,0,0.05,57.95,0)" xlink:href="#ba"/><use transform="matrix(0.05,0,0,0.05,67.95,0)" xlink:href="#aZ"/><use transform="matrix(0.05,0,0,0.05,77.95,0)" xlink:href="#aC"/><use transform="matrix(0.05,0,0,0.05,81.9,0)" xlink:href="#aD"/></g><g id="W"><use transform="matrix(0.04938271604938272,0,0,0.04938271604938272,0,0)" xlink:href="#aY"/><use transform="matrix(0.04938271604938272,0,0,0.04938271604938272,4.938271604938272,0)" xlink:href="#ay"/><use transform="matrix(0.04938271604938272,0,0,0.04938271604938272,14.814814814814817,0)" xlink:href="#bn"/><use transform="matrix(0.04938271604938272,0,0,0.04938271604938272,23.703703703703706,0)" xlink:href="#aY"/></g><g id="X"><use transform="matrix(0.04938271604938272,0,0,0.04938271604938272,0,0)" xlink:href="#aC"/><use transform="matrix(0.04938271604938272,0,0,0.04938271604938272,3.901234567901235,0)" xlink:href="#aO"/><use transform="matrix(0.04938271604938272,0,0,0.04938271604938272,18.666666666666668,0)" xlink:href="#aP"/><use transform="matrix(0.04938271604938272,0,0,0.04938271604938272,28.543209876543212,0)" xlink:href="#bi"/><use transform="matrix(0.04938271604938272,0,0,0.04938271604938272,38.41975308641976,0)" xlink:href="#ay"/></g><path d="M24-231v-30h32v30H24zM24 0v-190h32V0H24" id="by"/><path d="M-5 72V49h209v23H-5" id="bz"/><path d="M59-47c-2 24 18 29 38 22v24C64 9 27 4 27-40v-127H5v-23h24l9-43h21v43h35v23H59v120" id="bA"/><g id="Y"><use transform="matrix(0.05,0,0,0.05,0,0)" xlink:href="#by"/><use transform="matrix(0.05,0,0,0.05,3.95,0)" xlink:href="#bt"/><use transform="matrix(0.05,0,0,0.05,12.949999999999998,0)" xlink:href="#bz"/><use transform="matrix(0.05,0,0,0.05,22.95,0)" xlink:href="#bu"/><use transform="matrix(0.05,0,0,0.05,31.950000000000003,0)" xlink:href="#bv"/><use transform="matrix(0.05,0,0,0.05,41.95,0)" xlink:href="#bw"/><use transform="matrix(0.05,0,0,0.05,47.900000000000006,0)" xlink:href="#bw"/><use transform="matrix(0.05,0,0,0.05,53.85,0)" xlink:href="#bx"/><use transform="matrix(0.05,0,0,0.05,63.85,0)" xlink:href="#bu"/><use transform="matrix(0.05,0,0,0.05,72.85000000000001,0)" xlink:href="#bA"/></g><path d="M210-169c-67 3-38 105-44 169h-31v-121c0-29-5-50-35-48C34-165 62-65 56 0H25l-1-190h30c1 10-1 24 2 32 10-44 99-50 107 0 11-21 27-35 58-36 85-2 47 119 55 194h-31v-121c0-29-5-49-35-48" id="bB"/><path d="M85-194c31 0 48 13 60 33l-1-100h32l1 261h-30c-2-10 0-23-3-31C134-8 116 4 85 4 32 4 16-35 15-94c0-66 23-100 70-100zm9 24c-40 0-46 34-46 75 0 40 6 74 45 74 42 0 51-32 51-76 0-42-9-74-50-73" id="bC"/><g id="Z"><use transform="matrix(0.05,0,0,0.05,0,0)" xlink:href="#bB"/><use transform="matrix(0.05,0,0,0.05,14.950000000000001,0)" xlink:href="#bv"/><use transform="matrix(0.05,0,0,0.05,24.950000000000003,0)" xlink:href="#bC"/><use transform="matrix(0.05,0,0,0.05,34.95,0)" xlink:href="#bx"/></g><g id="aa"><use transform="matrix(0.04938271604938272,0,0,0.04938271604938272,0,0)" xlink:href="#aL"/><use transform="matrix(0.04938271604938272,0,0,0.04938271604938272,12.790123456790125,0)" xlink:href="#ay"/><use transform="matrix(0.04938271604938272,0,0,0.04938271604938272,22.66666666666667,0)" xlink:href="#ax"/><use transform="matrix(0.04938271604938272,0,0,0.04938271604938272,31.555555555555557,0)" xlink:href="#bj"/><use transform="matrix(0.04938271604938272,0,0,0.04938271604938272,41.4320987654321,0)" xlink:href="#bb"/><use transform="matrix(0.04938271604938272,0,0,0.04938271604938272,51.308641975308646,0)" xlink:href="#ba"/><use transform="matrix(0.04938271604938272,0,0,0.04938271604938272,61.18518518518519,0)" xlink:href="#ax"/><use transform="matrix(0.04938271604938272,0,0,0.04938271604938272,70.07407407407408,0)" xlink:href="#ay"/><use transform="matrix(0.04938271604938272,0,0,0.04938271604938272,79.95061728395062,0)" xlink:href="#aK"/><use transform="matrix(0.04938271604938272,0,0,0.04938271604938272,92.74074074074075,0)" xlink:href="#be"/><use transform="matrix(0.04938271604938272,0,0,0.04938271604938272,102.61728395061729,0)" xlink:href="#bb"/><use transform="matrix(0.04938271604938272,0,0,0.04938271604938272,112.49382716049384,0)" xlink:href="#aC"/><use transform="matrix(0.04938271604938272,0,0,0.04938271604938272,116.39506172839508,0)" xlink:href="#bd"/><use transform="matrix(0.04938271604938272,0,0,0.04938271604938272,125.28395061728396,0)" xlink:href="#ay"/></g><g id="ab"><use transform="matrix(0.04938271604938272,0,0,0.04938271604938272,0,0)" xlink:href="#az"/><use transform="matrix(0.04938271604938272,0,0,0.04938271604938272,5.8765432098765435,0)" xlink:href="#ay"/><use transform="matrix(0.04938271604938272,0,0,0.04938271604938272,15.753086419753087,0)" xlink:href="#ax"/><use transform="matrix(0.04938271604938272,0,0,0.04938271604938272,24.641975308641978,0)" xlink:href="#bj"/><use transform="matrix(0.04938271604938272,0,0,0.04938271604938272,34.51851851851852,0)" xlink:href="#bb"/><use transform="matrix(0.04938271604938272,0,0,0.04938271604938272,44.39506172839506,0)" xlink:href="#ba"/><use transform="matrix(0.04938271604938272,0,0,0.04938271604938272,54.27160493827161,0)" xlink:href="#ax"/><use transform="matrix(0.04938271604938272,0,0,0.04938271604938272,63.1604938271605,0)" xlink:href="#ay"/><use transform="matrix(0.04938271604938272,0,0,0.04938271604938272,73.03703703703704,0)" xlink:href="#aZ"/><use transform="matrix(0.04938271604938272,0,0,0.04938271604938272,82.91358024691358,0)" xlink:href="#aC"/><use transform="matrix(0.04938271604938272,0,0,0.04938271604938272,86.81481481481482,0)" xlink:href="#aD"/></g><g id="ac"><use transform="matrix(0.04938271604938272,0,0,0.04938271604938272,0,0)" xlink:href="#bb"/><use transform="matrix(0.04938271604938272,0,0,0.04938271604938272,9.876543209876544,0)" xlink:href="#bj"/><use transform="matrix(0.04938271604938272,0,0,0.04938271604938272,19.75308641975309,0)" xlink:href="#aY"/><use transform="matrix(0.04938271604938272,0,0,0.04938271604938272,24.69135802469136,0)" xlink:href="#aC"/><use transform="matrix(0.04938271604938272,0,0,0.04938271604938272,28.592592592592595,0)" xlink:href="#bb"/><use transform="matrix(0.04938271604938272,0,0,0.04938271604938272,38.46913580246914,0)" xlink:href="#ba"/><use transform="matrix(0.04938271604938272,0,0,0.04938271604938272,48.345679012345684,0)" xlink:href="#aZ"/><use transform="matrix(0.04938271604938272,0,0,0.04938271604938272,58.22222222222223,0)" xlink:href="#aC"/><use transform="matrix(0.04938271604938272,0,0,0.04938271604938272,62.12345679012346,0)" xlink:href="#aD"/></g><path fill="#333" d="M0 4l72-265h28L28 4H0" id="bD"/><g id="ad"><use transform="matrix(0.05,0,0,0.05,0,0)" xlink:href="#bD"/><use transform="matrix(0.05,0,0,0.05,5,0)" xlink:href="#aC"/><use transform="matrix(0.05,0,0,0.05,8.95,0)" xlink:href="#ax"/><use transform="matrix(0.05,0,0,0.05,17.95,0)" xlink:href="#aZ"/><use transform="matrix(0.05,0,0,0.05,27.950000000000003,0)" xlink:href="#bd"/><use transform="matrix(0.05,0,0,0.05,36.95,0)" xlink:href="#bb"/><use transform="matrix(0.05,0,0,0.05,46.95,0)" xlink:href="#az"/><use transform="matrix(0.05,0,0,0.05,52.900000000000006,0)" xlink:href="#az"/><use transform="matrix(0.05,0,0,0.05,58.85,0)" xlink:href="#ay"/><use transform="matrix(0.05,0,0,0.05,68.85000000000001,0)" xlink:href="#bd"/><use transform="matrix(0.05,0,0,0.05,77.85000000000001,0)" xlink:href="#aY"/></g><g id="ae"><use transform="matrix(0.04938271604938272,0,0,0.04938271604938272,0,0)" xlink:href="#aJ"/><use transform="matrix(0.04938271604938272,0,0,0.04938271604938272,11.851851851851853,0)" xlink:href="#aY"/><use transform="matrix(0.04938271604938272,0,0,0.04938271604938272,16.790123456790127,0)" xlink:href="#aY"/><use transform="matrix(0.04938271604938272,0,0,0.04938271604938272,21.7283950617284,0)" xlink:href="#ay"/><use transform="matrix(0.04938271604938272,0,0,0.04938271604938272,31.60493827160494,0)" xlink:href="#aO"/><use transform="matrix(0.04938271604938272,0,0,0.04938271604938272,46.37037037037038,0)" xlink:href="#bj"/><use transform="matrix(0.04938271604938272,0,0,0.04938271604938272,56.24691358024693,0)" xlink:href="#aY"/></g><g id="af"><use transform="matrix(0.04938271604938272,0,0,0.04938271604938272,0,0)" xlink:href="#aY"/><use transform="matrix(0.04938271604938272,0,0,0.04938271604938272,4.938271604938272,0)" xlink:href="#ay"/><use transform="matrix(0.04938271604938272,0,0,0.04938271604938272,14.814814814814817,0)" xlink:href="#ax"/><use transform="matrix(0.04938271604938272,0,0,0.04938271604938272,23.703703703703706,0)" xlink:href="#aY"/><use transform="matrix(0.04938271604938272,0,0,0.04938271604938272,28.641975308641978,0)" xlink:href="#aZ"/><use transform="matrix(0.04938271604938272,0,0,0.04938271604938272,38.51851851851852,0)" xlink:href="#aC"/><use transform="matrix(0.04938271604938272,0,0,0.04938271604938272,42.41975308641975,0)" xlink:href="#aD"/></g><path d="M141-36C126-15 110 5 73 4 37 3 15-17 15-53c-1-64 63-63 125-63 3-35-9-54-41-54-24 1-41 7-42 31l-33-3c5-37 33-52 76-52 45 0 72 20 72 64v82c-1 20 7 32 28 27v20c-31 9-61-2-59-35zM48-53c0 20 12 33 32 33 41-3 63-29 60-74-43 2-92-5-92 41" id="bE"/><path d="M84 4C-5 8 30-112 23-190h32v120c0 31 7 50 39 49 72-2 45-101 50-169h31l1 190h-30c-1-10 1-25-2-33-11 22-28 36-60 37" id="bF"/><g id="ag"><use transform="matrix(0.05,0,0,0.05,0,0)" xlink:href="#bt"/><use transform="matrix(0.05,0,0,0.05,9,0)" xlink:href="#bA"/><use transform="matrix(0.05,0,0,0.05,14,0)" xlink:href="#bE"/><use transform="matrix(0.05,0,0,0.05,24,0)" xlink:href="#bA"/><use transform="matrix(0.05,0,0,0.05,29,0)" xlink:href="#bF"/><use transform="matrix(0.05,0,0,0.05,39,0)" xlink:href="#bt"/></g><path d="M0 4l72-265h28L28 4H0" id="bG"/><g id="ah"><use transform="matrix(0.05,0,0,0.05,0,0)" xlink:href="#bG"/><use transform="matrix(0.05,0,0,0.05,5,0)" xlink:href="#bt"/><use transform="matrix(0.05,0,0,0.05,14,0)" xlink:href="#bu"/><use transform="matrix(0.05,0,0,0.05,23,0)" xlink:href="#bv"/><use transform="matrix(0.05,0,0,0.05,33,0)" xlink:href="#bw"/><use transform="matrix(0.05,0,0,0.05,38.95,0)" xlink:href="#bx"/></g><path fill="#333" d="M185-189c-5-48-123-54-124 2 14 75 158 14 163 119 3 78-121 87-175 55-17-10-28-26-33-46l33-7c5 56 141 63 141-1 0-78-155-14-162-118-5-82 145-84 179-34 5 7 8 16 11 25" id="bH"/><g id="ai"><use transform="matrix(0.04938271604938272,0,0,0.04938271604938272,0,0)" xlink:href="#bH"/><use transform="matrix(0.04938271604938272,0,0,0.04938271604938272,11.851851851851853,0)" xlink:href="#bd"/><use transform="matrix(0.04938271604938272,0,0,0.04938271604938272,20.74074074074074,0)" xlink:href="#bb"/><use transform="matrix(0.04938271604938272,0,0,0.04938271604938272,30.617283950617285,0)" xlink:href="#az"/><use transform="matrix(0.04938271604938272,0,0,0.04938271604938272,36.49382716049383,0)" xlink:href="#ay"/></g><g id="aj"><use transform="matrix(0.04938271604938272,0,0,0.04938271604938272,0,0)" xlink:href="#aA"/><use transform="matrix(0.04938271604938272,0,0,0.04938271604938272,11.851851851851853,0)" xlink:href="#aB"/></g><g id="ak"><use transform="matrix(0.04938271604938272,0,0,0.04938271604938272,0,0)" xlink:href="#aC"/><use transform="matrix(0.04938271604938272,0,0,0.04938271604938272,3.901234567901235,0)" xlink:href="#aD"/></g><g id="al"><use transform="matrix(0.04938271604938272,0,0,0.04938271604938272,0,0)" xlink:href="#aE"/><use transform="matrix(0.04938271604938272,0,0,0.04938271604938272,4.938271604938272,0)" xlink:href="#aF"/><use transform="matrix(0.04938271604938272,0,0,0.04938271604938272,17.7283950617284,0)" xlink:href="#aG"/></g><g id="am"><use transform="matrix(0.04938271604938272,0,0,0.04938271604938272,0,0)" xlink:href="#aF"/><use transform="matrix(0.04938271604938272,0,0,0.04938271604938272,12.790123456790125,0)" xlink:href="#aH"/><use transform="matrix(0.04938271604938272,0,0,0.04938271604938272,26.617283950617285,0)" xlink:href="#aG"/></g><g id="an"><use transform="matrix(0.04938271604938272,0,0,0.04938271604938272,0,0)" xlink:href="#aF"/><use transform="matrix(0.04938271604938272,0,0,0.04938271604938272,12.790123456790125,0)" xlink:href="#aw"/><use transform="matrix(0.04938271604938272,0,0,0.04938271604938272,25.58024691358025,0)" xlink:href="#aI"/><use transform="matrix(0.04938271604938272,0,0,0.04938271604938272,35.4567901234568,0)" xlink:href="#aI"/></g><g id="ao"><use transform="matrix(0.04938271604938272,0,0,0.04938271604938272,0,0)" xlink:href="#aJ"/><use transform="matrix(0.04938271604938272,0,0,0.04938271604938272,11.851851851851853,0)" xlink:href="#aw"/><use transform="matrix(0.04938271604938272,0,0,0.04938271604938272,24.641975308641978,0)" xlink:href="#aG"/><use transform="matrix(0.04938271604938272,0,0,0.04938271604938272,35.111111111111114,0)" xlink:href="#aH"/><use transform="matrix(0.04938271604938272,0,0,0.04938271604938272,48.93827160493828,0)" xlink:href="#aE"/><use transform="matrix(0.04938271604938272,0,0,0.04938271604938272,53.876543209876544,0)" xlink:href="#aF"/><use transform="matrix(0.04938271604938272,0,0,0.04938271604938272,66.66666666666667,0)" xlink:href="#aK"/><use transform="matrix(0.04938271604938272,0,0,0.04938271604938272,79.4567901234568,0)" xlink:href="#aL"/><use transform="matrix(0.04938271604938272,0,0,0.04938271604938272,92.24691358024693,0)" xlink:href="#aM"/><use transform="matrix(0.04938271604938272,0,0,0.04938271604938272,104.09876543209877,0)" xlink:href="#aN"/><use transform="matrix(0.04938271604938272,0,0,0.04938271604938272,118.8641975308642,0)" xlink:href="#aM"/><use transform="matrix(0.04938271604938272,0,0,0.04938271604938272,130.71604938271605,0)" xlink:href="#aF"/><use transform="matrix(0.04938271604938272,0,0,0.04938271604938272,143.50617283950618,0)" xlink:href="#aG"/></g><g id="ap"><use transform="matrix(0.04938271604938272,0,0,0.04938271604938272,0,0)" xlink:href="#bh"/><use transform="matrix(0.04938271604938272,0,0,0.04938271604938272,10.814814814814815,0)" xlink:href="#aB"/></g><g id="aq"><use transform="matrix(0.04938271604938272,0,0,0.04938271604938272,0,0)" xlink:href="#bo"/><use transform="matrix(0.04938271604938272,0,0,0.04938271604938272,9.876543209876544,0)" xlink:href="#bg"/><use transform="matrix(0.04938271604938272,0,0,0.04938271604938272,19.75308641975309,0)" xlink:href="#ay"/><use transform="matrix(0.04938271604938272,0,0,0.04938271604938272,29.629629629629633,0)" xlink:href="#ax"/><use transform="matrix(0.04938271604938272,0,0,0.04938271604938272,38.51851851851852,0)" xlink:href="#aY"/><use transform="matrix(0.04938271604938272,0,0,0.04938271604938272,43.45679012345679,0)" xlink:href="#aC"/><use transform="matrix(0.04938271604938272,0,0,0.04938271604938272,47.358024691358025,0)" xlink:href="#bb"/><use transform="matrix(0.04938271604938272,0,0,0.04938271604938272,57.23456790123457,0)" xlink:href="#ba"/><use transform="matrix(0.04938271604938272,0,0,0.04938271604938272,67.11111111111111,0)" xlink:href="#aZ"/><use transform="matrix(0.04938271604938272,0,0,0.04938271604938272,76.98765432098766,0)" xlink:href="#aC"/><use transform="matrix(0.04938271604938272,0,0,0.04938271604938272,80.8888888888889,0)" xlink:href="#aD"/></g><g id="ar"><use transform="matrix(0.04938271604938272,0,0,0.04938271604938272,0,0)" xlink:href="#aX"/><use transform="matrix(0.04938271604938272,0,0,0.04938271604938272,4.938271604938272,0)" xlink:href="#bg"/><use transform="matrix(0.04938271604938272,0,0,0.04938271604938272,14.814814814814817,0)" xlink:href="#aQ"/><use transform="matrix(0.04938271604938272,0,0,0.04938271604938272,18.71604938271605,0)" xlink:href="#aQ"/><use transform="matrix(0.04938271604938272,0,0,0.04938271604938272,22.617283950617285,0)" xlink:href="#aZ"/><use transform="matrix(0.04938271604938272,0,0,0.04938271604938272,32.49382716049383,0)" xlink:href="#ax"/><use transform="matrix(0.04938271604938272,0,0,0.04938271604938272,41.38271604938272,0)" xlink:href="#bd"/><use transform="matrix(0.04938271604938272,0,0,0.04938271604938272,50.27160493827161,0)" xlink:href="#bb"/><use transform="matrix(0.04938271604938272,0,0,0.04938271604938272,60.14814814814815,0)" xlink:href="#az"/><use transform="matrix(0.04938271604938272,0,0,0.04938271604938272,66.0246913580247,0)" xlink:href="#ay"/></g><g id="as"><use transform="matrix(0.05,0,0,0.05,0,0)" xlink:href="#ba"/><use transform="matrix(0.05,0,0,0.05,10,0)" xlink:href="#ay"/><use transform="matrix(0.05,0,0,0.05,20,0)" xlink:href="#bi"/><use transform="matrix(0.05,0,0,0.05,30,0)" xlink:href="#aP"/><use transform="matrix(0.05,0,0,0.05,40,0)" xlink:href="#aY"/><use transform="matrix(0.05,0,0,0.05,45,0)" xlink:href="#aC"/><use transform="matrix(0.05,0,0,0.05,48.95,0)" xlink:href="#bc"/><use transform="matrix(0.05,0,0,0.05,57.95,0)" xlink:href="#ay"/><use transform="matrix(0.05,0,0,0.05,67.95,0)" xlink:href="#aZ"/><use transform="matrix(0.05,0,0,0.05,77.95,0)" xlink:href="#ax"/><use transform="matrix(0.05,0,0,0.05,86.95,0)" xlink:href="#bd"/><use transform="matrix(0.05,0,0,0.05,95.95,0)" xlink:href="#bb"/><use transform="matrix(0.05,0,0,0.05,105.95,0)" xlink:href="#az"/><use transform="matrix(0.05,0,0,0.05,111.9,0)" xlink:href="#ay"/></g><g id="at"><use transform="matrix(0.05,0,0,0.05,0,0)" xlink:href="#bj"/><use transform="matrix(0.05,0,0,0.05,10,0)" xlink:href="#aP"/><use transform="matrix(0.05,0,0,0.05,20,0)" xlink:href="#az"/><use transform="matrix(0.05,0,0,0.05,25.950000000000003,0)" xlink:href="#aY"/><use transform="matrix(0.05,0,0,0.05,30.950000000000003,0)" xlink:href="#aC"/><use transform="matrix(0.05,0,0,0.05,34.9,0)" xlink:href="#aP"/><use transform="matrix(0.05,0,0,0.05,44.9,0)" xlink:href="#aQ"/><use transform="matrix(0.05,0,0,0.05,48.85,0)" xlink:href="#aZ"/><use transform="matrix(0.05,0,0,0.05,58.85,0)" xlink:href="#ax"/><use transform="matrix(0.05,0,0,0.05,67.85,0)" xlink:href="#bd"/><use transform="matrix(0.05,0,0,0.05,76.85,0)" xlink:href="#bb"/><use transform="matrix(0.05,0,0,0.05,86.85,0)" xlink:href="#az"/><use transform="matrix(0.05,0,0,0.05,92.8,0)" xlink:href="#ay"/></g><g id="au"><use transform="matrix(0.04938271604938272,0,0,0.04938271604938272,0,0)" xlink:href="#aJ"/><use transform="matrix(0.04938271604938272,0,0,0.04938271604938272,11.851851851851853,0)" xlink:href="#aQ"/><use transform="matrix(0.04938271604938272,0,0,0.04938271604938272,15.753086419753087,0)" xlink:href="#aQ"/><use transform="matrix(0.04938271604938272,0,0,0.04938271604938272,19.654320987654323,0)" xlink:href="#bb"/><use transform="matrix(0.04938271604938272,0,0,0.04938271604938272,29.530864197530867,0)" xlink:href="#bk"/><use transform="matrix(0.04938271604938272,0,0,0.04938271604938272,42.320987654320994,0)" xlink:href="#ay"/><use transform="matrix(0.04938271604938272,0,0,0.04938271604938272,52.19753086419754,0)" xlink:href="#aD"/><use transform="matrix(0.04938271604938272,0,0,0.04938271604938272,62.074074074074076,0)" xlink:href="#aw"/><use transform="matrix(0.04938271604938272,0,0,0.04938271604938272,74.8641975308642,0)" xlink:href="#ax"/><use transform="matrix(0.04938271604938272,0,0,0.04938271604938272,83.75308641975309,0)" xlink:href="#ay"/><use transform="matrix(0.04938271604938272,0,0,0.04938271604938272,93.62962962962963,0)" xlink:href="#az"/></g><g id="av"><use transform="matrix(0.04938271604938272,0,0,0.04938271604938272,0,0)" xlink:href="#aJ"/><use transform="matrix(0.04938271604938272,0,0,0.04938271604938272,11.851851851851853,0)" xlink:href="#aw"/><use transform="matrix(0.04938271604938272,0,0,0.04938271604938272,24.641975308641978,0)" xlink:href="#aG"/><use transform="matrix(0.04938271604938272,0,0,0.04938271604938272,35.111111111111114,0)" xlink:href="#aH"/><use transform="matrix(0.04938271604938272,0,0,0.04938271604938272,48.93827160493828,0)" xlink:href="#aE"/><use transform="matrix(0.04938271604938272,0,0,0.04938271604938272,53.876543209876544,0)" xlink:href="#aF"/><use transform="matrix(0.04938271604938272,0,0,0.04938271604938272,66.66666666666667,0)" xlink:href="#aK"/><use transform="matrix(0.04938271604938272,0,0,0.04938271604938272,79.4567901234568,0)" xlink:href="#aL"/><use transform="matrix(0.04938271604938272,0,0,0.04938271604938272,92.24691358024693,0)" xlink:href="#aM"/><use transform="matrix(0.04938271604938272,0,0,0.04938271604938272,104.09876543209877,0)" xlink:href="#aN"/><use transform="matrix(0.04938271604938272,0,0,0.04938271604938272,118.8641975308642,0)" xlink:href="#aM"/><use transform="matrix(0.04938271604938272,0,0,0.04938271604938272,130.71604938271605,0)" xlink:href="#aF"/><use transform="matrix(0.04938271604938272,0,0,0.04938271604938272,143.50617283950618,0)" xlink:href="#aG"/></g></defs></g></svg>